<?xml version="1.0" encoding="UTF-8" standalone="no"?>
<svg width="21px" height="17px" viewBox="0 0 21 17" version="1.1" xmlns="http://www.w3.org/2000/svg" xmlns:xlink="http://www.w3.org/1999/xlink">
    <!-- Generator: Sketch 3.7.1 (28215) - http://www.bohemiancoding.com/sketch -->
    <title>Shape</title>
    <desc>Created with Sketch.</desc>
    <defs></defs>
    <g id="signedOut" stroke="none" stroke-width="1" fill="none" fill-rule="evenodd">
        <g id="itemViewV2" transform="translate(-420.000000, -613.000000)" fill="#FFFFFF">
            <g id="shareicons" transform="translate(300.000000, 599.000000)">
                <g id="Twitter" transform="translate(108.000000, 0.000000)">
                    <path d="M32.266888,16.3195313 C31.5328255,16.644375 30.748138,16.86375 29.921263,16.965 C30.765013,16.45875 31.4147005,15.6571875 31.7184505,14.70375 C30.9295443,15.1720313 30.056263,15.51375 29.1239193,15.6951563 C28.3772005,14.8978125 27.3140755,14.4 26.141263,14.4 C23.8842318,14.4 22.057513,16.2309375 22.057513,18.4879688 C22.057513,18.8085938 22.091263,19.1207813 22.1629818,19.4203125 C18.766888,19.2515625 15.7547005,17.623125 13.7423568,15.1467188 C13.3922005,15.75 13.1897005,16.4545313 13.1897005,17.20125 C13.1897005,18.61875 13.9153255,19.8717188 15.0122005,20.6057813 C14.3372005,20.5889063 13.704388,20.4032813 13.1559505,20.0953125 L13.1559505,20.1459375 C13.1559505,22.12875 14.565013,23.7782813 16.4339193,24.15375 C16.0922005,24.2465625 15.729388,24.2971875 15.358138,24.2971875 C15.0965755,24.2971875 14.8392318,24.271875 14.5903255,24.22125 C15.1092318,25.8454688 16.6195443,27.0267188 18.4082943,27.0604688 C17.011888,28.1573438 15.2484505,28.81125 13.333138,28.81125 C13.0040755,28.81125 12.6792318,28.7901563 12.3586068,28.7521875 C14.160013,29.925 16.3073568,30.6 18.6107943,30.6 C26.1328255,30.6 30.241888,24.3689063 30.241888,18.9646875 C30.241888,18.7875 30.2376693,18.6103125 30.2292318,18.4373438 C31.0265755,17.859375 31.7184505,17.1421875 32.266888,16.3195313 L32.266888,16.3195313 Z" id="Shape"></path>
                </g>
            </g>
        </g>
    </g>
</svg>