<svg width="21" height="17" viewBox="0 0 21 17" xmlns="http://www.w3.org/2000/svg"><title>Shape</title><path d="M20.267 2.32a8.258 8.258 0 0 1-2.346.645A4.099 4.099 0 0 0 19.718.704a8.116 8.116 0 0 1-2.594.991 4.085 4.085 0 0 0-7.066 2.793c0 .32.033.633.105.932a11.575 11.575 0 0 1-8.42-4.273 4.095 4.095 0 0 0 1.27 5.46 3.99 3.99 0 0 1-1.857-.512v.05a4.088 4.088 0 0 0 3.278 4.009 4.111 4.111 0 0 1-1.076.143c-.261 0-.519-.025-.768-.076a4.09 4.09 0 0 0 3.818 2.84 8.19 8.19 0 0 1-6.05 1.691A11.417 11.417 0 0 0 6.612 16.6c7.522 0 11.63-6.231 11.63-11.635 0-.177-.003-.355-.012-.528a8.315 8.315 0 0 0 2.038-2.117z" fill="#FFF" fill-rule="evenodd"/></svg>