<?xml version="1.0" encoding="UTF-8" standalone="no"?>
<svg width="1280px" height="164px" viewBox="0 0 1280 164" version="1.1" xmlns="http://www.w3.org/2000/svg" xmlns:xlink="http://www.w3.org/1999/xlink">
    <!-- Generator: Sketch 3.8.3 (29802) - http://www.bohemiancoding.com/sketch -->
    <title>base vectoersz large</title>
    <desc>Created with Sketch.</desc>
    <defs>
        <linearGradient x1="90.5313135%" y1="50%" x2="16.8785388%" y2="50%" id="linearGradient-1">
            <stop stop-color="#5B7AD6" offset="0%"></stop>
            <stop stop-color="#4CA055" offset="59.5600456%"></stop>
            <stop stop-color="#D84141" offset="100%"></stop>
        </linearGradient>
    </defs>
    <g id="Page-1" stroke="none" stroke-width="1" fill="none" fill-rule="evenodd">
        <g id="base-vectoersz-large" fill="url(#linearGradient-1)">
            <path d="M150.325581,153.674419 C150.325581,154.418608 150.046514,155.069765 149.488372,155.627907 C148.93023,156.186049 148.279073,156.465116 147.534884,156.465116 C146.542631,156.465116 145.798452,156.093027 145.302326,155.348837 L77.2093023,59.9069767 L9.11627907,154.604651 C8.62015256,155.472873 7.87597395,155.906977 6.88372093,155.906977 C6.01549953,155.906977 5.30232837,155.596902 4.74418605,154.976744 C4.18604372,154.356586 3.90697674,153.674422 3.90697674,152.930233 C3.90697674,152.558138 5.27130419,150.356609 8,146.325581 C10.7286958,142.294553 14.3565665,137.116311 18.8837209,130.790698 C23.4108753,124.465085 28.5581107,117.271358 34.3255814,109.209302 C40.0930521,101.147247 46.0774884,92.8682595 52.2790698,84.372093 C58.4806512,75.8759265 64.6201247,67.4419023 70.6976744,59.0697674 C76.7752242,50.6976326 82.2945488,43.0698019 87.255814,36.1860465 C92.2170791,29.3022912 96.4650986,23.4108772 100,18.5116279 C103.534901,13.6123786 105.798445,10.4186121 106.790698,8.93023256 C107.286824,8.18604279 107.968988,7.81395349 108.837209,7.81395349 C109.581399,7.81395349 110.29457,8.09302047 110.976744,8.65116279 C111.658918,9.20930512 112,9.92247628 112,10.7906977 C112,11.2868242 111.286829,12.5891367 109.860465,14.6976744 C108.434101,16.8062121 106.666677,19.3488223 104.55814,22.3255814 C102.449602,25.3023405 100.124044,28.5271144 97.5813953,32 C95.038747,35.4728856 92.5891591,38.7596744 90.2325581,41.8604651 C87.8759572,44.9612558 85.829466,47.7209181 84.0930233,50.1395349 C82.3565805,52.5581516 81.2403126,54.1395312 80.744186,54.8837209 L144.55814,144.55814 L144.55814,10.4186047 C144.55814,9.55038326 144.868214,8.86821953 145.488372,8.37209302 C146.10853,7.87596651 146.790694,7.62790698 147.534884,7.62790698 C148.279073,7.62790698 148.93023,7.90697395 149.488372,8.46511628 C150.046514,9.0232586 150.325581,9.67441488 150.325581,10.4186047 L150.325581,153.674419 Z M89.4883721,10.7906977 C89.4883721,11.0387609 88.4341191,12.7441702 86.3255814,15.9069767 C84.2170437,19.0697833 81.3953665,23.1627656 77.8604651,28.1860465 C74.3255637,33.2093274 70.2945963,38.9146967 65.7674419,45.3023256 C61.2402874,51.6899544 56.5581637,58.2635321 51.7209302,65.0232558 C46.8836967,71.7829795 42.1085507,78.4495795 37.3953488,85.0232558 C32.682147,91.5969321 28.3411051,97.6123758 24.372093,103.069767 C20.4030809,108.527159 17.0542772,113.147268 14.3255814,116.930233 C11.5968856,120.713197 9.79845395,123.2248 8.93023256,124.465116 C8.43410605,125.333338 7.68992744,125.767442 6.69767442,125.767442 C5.7054214,125.767442 4.96124279,125.457367 4.46511628,124.837209 C3.96898977,124.217051 3.72093023,123.472873 3.72093023,122.604651 L3.72093023,11.3488372 C3.72093023,10.6046474 3.99999721,9.95349116 4.55813953,9.39534884 C5.11628186,8.83720651 5.76743814,8.55813953 6.51162791,8.55813953 C7.25581767,8.55813953 7.9379814,8.80619907 8.55813953,9.30232558 C9.17829767,9.79845209 9.48837209,10.4806158 9.48837209,11.3488372 L9.48837209,114.046512 L84.2790698,9.11627907 C84.7751963,8.24805767 85.5813898,7.81395349 86.6976744,7.81395349 C87.4418642,7.81395349 88.0930205,8.09302047 88.6511628,8.65116279 C89.2093051,9.20930512 89.4883721,9.92247628 89.4883721,10.7906977 L89.4883721,10.7906977 Z M286.511628,153.302326 C286.511628,154.046515 286.263568,154.759687 285.767442,155.44186 C285.271315,156.124034 284.589152,156.465116 283.72093,156.465116 L192.55814,156.465116 C191.689918,156.465116 190.976747,156.155042 190.418605,155.534884 C189.860462,154.914726 189.581395,154.170547 189.581395,153.302326 L189.581395,10.4186047 C189.581395,9.55038326 189.89147,8.86821953 190.511628,8.37209302 C191.131786,7.87596651 191.81395,7.62790698 192.55814,7.62790698 L283.72093,7.62790698 C284.46512,7.62790698 285.116276,7.90697395 285.674419,8.46511628 C286.232561,9.0232586 286.511628,9.67441488 286.511628,10.4186047 C286.511628,11.1627944 286.232561,11.8139507 285.674419,12.372093 C285.116276,12.9302353 284.46512,13.2093023 283.72093,13.2093023 L195.162791,13.2093023 L195.162791,71.0697674 L264.186047,71.0697674 C264.930236,71.0697674 265.581393,71.3488344 266.139535,71.9069767 C266.697677,72.4651191 266.976744,73.1162753 266.976744,73.8604651 C266.976744,74.6046549 266.697677,75.2558112 266.139535,75.8139535 C265.581393,76.3720958 264.930236,76.6511628 264.186047,76.6511628 L195.534884,76.6511628 L195.348837,89.3023256 L264.930233,89.3023256 C266.914739,89.3023256 267.906977,90.2945637 267.906977,92.2790698 C267.906977,93.0232595 267.596902,93.7054233 266.976744,94.3255814 C266.356586,94.9457395 265.674422,95.255814 264.930233,95.255814 L195.162791,95.255814 L195.162791,150.139535 L283.72093,150.139535 C284.46512,150.139535 285.116276,150.480617 285.674419,151.162791 C286.232561,151.844965 286.511628,152.558136 286.511628,153.302326 L286.511628,153.302326 Z M405.953488,153.302326 C405.953488,154.046515 405.705429,154.759687 405.209302,155.44186 C404.713176,156.124034 404.031012,156.465116 403.162791,156.465116 L312,156.465116 C311.131779,156.465116 310.418607,156.155042 309.860465,155.534884 C309.302323,154.914726 309.023256,154.170547 309.023256,153.302326 L309.023256,10.4186047 C309.023256,9.55038326 309.33333,8.86821953 309.953488,8.37209302 C310.573647,7.87596651 311.25581,7.62790698 312,7.62790698 L403.162791,7.62790698 C403.90698,7.62790698 404.558137,7.90697395 405.116279,8.46511628 C405.674421,9.0232586 405.953488,9.67441488 405.953488,10.4186047 C405.953488,11.1627944 405.674421,11.8139507 405.116279,12.372093 C404.558137,12.9302353 403.90698,13.2093023 403.162791,13.2093023 L314.604651,13.2093023 L314.604651,71.0697674 L383.627907,71.0697674 C384.372097,71.0697674 385.023253,71.3488344 385.581395,71.9069767 C386.139538,72.4651191 386.418605,73.1162753 386.418605,73.8604651 C386.418605,74.6046549 386.139538,75.2558112 385.581395,75.8139535 C385.023253,76.3720958 384.372097,76.6511628 383.627907,76.6511628 L314.976744,76.6511628 L314.790698,89.3023256 L384.372093,89.3023256 C386.356599,89.3023256 387.348837,90.2945637 387.348837,92.2790698 C387.348837,93.0232595 387.038763,93.7054233 386.418605,94.3255814 C385.798447,94.9457395 385.116283,95.255814 384.372093,95.255814 L314.604651,95.255814 L314.604651,150.139535 L403.162791,150.139535 C403.90698,150.139535 404.558137,150.480617 405.116279,151.162791 C405.674421,151.844965 405.953488,152.558136 405.953488,153.302326 L405.953488,153.302326 Z M517.023256,153.860465 C517.023256,154.604655 516.682174,155.224804 516,155.72093 C515.317826,156.217057 514.66667,156.465116 514.046512,156.465116 C513.054259,156.465116 512.31008,156.093027 511.813953,155.348837 L461.767442,85.3953488 L434.232558,112.930233 L434.232558,152.372093 C434.232558,153.116283 433.922484,153.767439 433.302326,154.325581 C432.682167,154.883724 432.000004,155.162791 431.255814,155.162791 C430.511624,155.162791 429.82946,154.914731 429.209302,154.418605 C428.589144,153.922478 428.27907,153.240314 428.27907,152.372093 L428.27907,11.3488372 C428.27907,10.4806158 428.589144,9.79845209 429.209302,9.30232558 C429.82946,8.80619907 430.511624,8.55813953 431.255814,8.55813953 C432.000004,8.55813953 432.682167,8.83720651 433.302326,9.39534884 C433.922484,9.95349116 434.232558,10.6046474 434.232558,11.3488372 L434.232558,79.8139535 L505.488372,8.37209302 C506.10853,7.75193488 506.728679,7.44186047 507.348837,7.44186047 C508.093027,7.44186047 508.775191,7.78294233 509.395349,8.46511628 C510.015507,9.14729023 510.325581,9.79844651 510.325581,10.4186047 C510.325581,11.1627944 510.015507,11.8449581 509.395349,12.4651163 L434.232558,87.8139535 L434.232558,104.930233 C434.728685,104.434106 435.720923,103.41086 437.209302,101.860465 C438.697682,100.31007 440.372084,98.5426456 442.232558,96.5581395 C444.093033,94.5736335 446.108516,92.5271423 448.27907,90.4186047 C450.449623,88.310067 452.465107,86.3565981 454.325581,84.5581395 C456.186056,82.7596809 457.798443,81.2713237 459.162791,80.0930233 C460.527139,78.9147228 461.395347,78.3255814 461.767442,78.3255814 C462.883727,78.3255814 463.751935,78.6976707 464.372093,79.4418605 C465.116283,80.5581451 466.945722,83.1317628 469.860465,87.1627907 C472.775208,91.1938186 476.186027,95.8759423 480.093023,101.209302 C484.00002,106.542662 488.124009,112.186017 492.465116,118.139535 C496.806223,124.093053 500.806183,129.643385 504.465116,134.790698 C508.124049,139.93801 511.131771,144.279052 513.488372,147.813953 C515.844973,151.348855 517.023256,153.364339 517.023256,153.860465 L517.023256,153.860465 Z M640.186047,153.674419 C640.186047,155.534893 639.193808,156.465116 637.209302,156.465116 L548.837209,156.465116 C546.976735,156.465116 546.046512,155.534893 546.046512,153.674419 L546.046512,11.3488372 C546.046512,10.6046474 546.325579,9.95349116 546.883721,9.39534884 C547.441863,8.83720651 548.09302,8.55813953 548.837209,8.55813953 C549.581399,8.55813953 550.232555,8.83720651 550.790698,9.39534884 C551.34884,9.95349116 551.627907,10.6046474 551.627907,11.3488372 L551.627907,150.883721 L564.093023,150.883721 L564.093023,10.6046512 C564.093023,9.8604614 564.403098,9.17829767 565.023256,8.55813953 C565.643414,7.9379814 566.325578,7.62790698 567.069767,7.62790698 C569.054273,7.62790698 570.046512,8.62014512 570.046512,10.6046512 L570.046512,150.883721 L637.209302,150.883721 C639.193808,150.883721 640.186047,151.813944 640.186047,153.674419 L640.186047,153.674419 Z M717.581395,10.4186047 C717.581395,10.9147312 716.620165,12.6821553 714.697674,15.7209302 C712.775184,18.7597051 710.325596,22.5116056 707.348837,26.9767442 C704.372078,31.4418828 701.147304,36.2480363 697.674419,41.3953488 C694.201533,46.5426614 690.852729,51.4418372 687.627907,56.0930233 C684.403085,60.7442093 681.581407,64.7751767 679.162791,68.1860465 C676.744174,71.5969163 675.162794,73.7984447 674.418605,74.7906977 C673.922478,75.6589191 673.116285,76.0930233 672,76.0930233 C670.883715,76.0930233 669.953492,75.5969042 669.209302,74.6046512 L624.55814,12.4651163 C624.186045,12.0930214 624,11.5969023 624,10.9767442 C624,10.1085228 624.341082,9.39535163 625.023256,8.8372093 C625.70543,8.27906698 626.418601,8 627.162791,8 C627.90698,8 628.589144,8.3720893 629.209302,9.11627907 L671.813953,68.2790698 L712.186047,8.93023256 C712.682173,8.06201116 713.488367,7.62790698 714.604651,7.62790698 C715.348841,7.62790698 716.031005,7.90697395 716.651163,8.46511628 C717.271321,9.0232586 717.581395,9.67441488 717.581395,10.4186047 L717.581395,10.4186047 Z M674.046512,153.674419 C674.046512,154.418608 673.767445,155.069765 673.209302,155.627907 C672.65116,156.186049 672.000004,156.465116 671.255814,156.465116 C670.511624,156.465116 669.860468,156.186049 669.302326,155.627907 C668.744183,155.069765 668.465116,154.418608 668.465116,153.674419 L668.465116,104.186047 C667.472863,102.821699 665.116298,99.6279321 661.395349,94.6046512 C657.6744,89.5813702 653.302351,83.6589488 648.27907,76.8372093 C643.255789,70.0154698 637.984524,62.7907358 632.465116,55.1627907 C626.945709,47.5348456 621.829481,40.4651488 617.116279,33.9534884 C612.403077,27.4418279 608.527147,21.9845181 605.488372,17.5813953 C602.449597,13.1782726 600.930233,10.7286847 600.930233,10.2325581 C600.930233,9.48836837 601.271314,8.86821953 601.953488,8.37209302 C602.635662,7.87596651 603.348833,7.62790698 604.093023,7.62790698 C604.961245,7.62790698 605.705423,7.99999628 606.325581,8.74418605 L673.488372,101.581395 C673.860467,102.201553 674.046512,102.759687 674.046512,103.255814 L674.046512,153.674419 Z M860.093023,10.4186047 C860.093023,10.6666679 859.317837,12.775174 857.767442,16.744186 C856.217047,20.7131981 854.201563,25.8914409 851.72093,32.2790698 C849.240298,38.6666986 846.387613,45.92244 843.162791,54.0465116 C839.937968,62.1705833 836.589165,70.5425926 833.116279,79.1627907 C829.643393,87.7829888 826.232575,96.3100353 822.883721,104.744186 C819.534867,113.178337 816.46513,120.868182 813.674419,127.813953 C810.883707,134.759725 808.558149,140.620131 806.697674,145.395349 C804.8372,150.170567 803.658917,153.240303 803.162791,154.604651 C802.666664,155.844967 801.798456,156.465116 800.55814,156.465116 C800.186045,156.217053 799.720933,155.968993 799.162791,155.72093 C798.604648,155.472867 798.201552,155.100778 797.953488,154.604651 C797.457362,153.364335 796.279079,150.325606 794.418605,145.488372 C792.55813,140.651139 790.294587,134.759725 787.627907,127.813953 C784.961227,120.868182 781.984513,113.178337 778.697674,104.744186 C775.410836,96.3100353 772.09304,87.7829888 768.744186,79.1627907 C765.395332,70.5425926 762.170558,62.1395758 759.069767,53.9534884 C755.968977,45.7674009 753.209314,38.5116595 750.790698,32.1860465 C748.372081,25.8604335 746.418612,20.7131981 744.930233,16.744186 C743.441853,12.775174 742.697674,10.7286828 742.697674,10.6046512 C742.697674,9.73642977 742.976741,9.0232586 743.534884,8.46511628 C744.093026,7.90697395 744.744182,7.62790698 745.488372,7.62790698 C746.976752,7.62790698 747.906975,8.24805581 748.27907,9.48837209 L791.44186,121.860465 L835.906977,9.48837209 C836.279072,8.24805581 837.209295,7.62790698 838.697674,7.62790698 C839.441864,7.62790698 840.09302,7.90697395 840.651163,8.46511628 C841.209305,9.0232586 841.488372,9.67441488 841.488372,10.4186047 C841.488372,10.6666679 840.868223,12.4030847 839.627907,15.627907 C838.387591,18.8527293 836.744196,23.1007488 834.697674,28.372093 C832.651153,33.6434372 830.325594,39.6588809 827.72093,46.4186047 C825.116266,53.1783284 822.387611,60.1239953 819.534884,67.255814 C816.682156,74.3876326 813.891487,81.4263219 811.162791,88.372093 C808.434095,95.3178642 805.922492,101.67439 803.627907,107.44186 C801.333322,113.209331 799.379853,118.0775 797.767442,122.046512 C796.155031,126.015524 795.100778,128.558134 794.604651,129.674419 L800.55814,145.488372 L854.511628,9.48837209 C854.883723,8.24805581 855.813946,7.62790698 857.302326,7.62790698 C858.046515,7.62790698 858.697672,7.90697395 859.255814,8.46511628 C859.813956,9.0232586 860.093023,9.67441488 860.093023,10.4186047 L860.093023,10.4186047 Z M897.674419,153.674419 C897.674419,154.54264 897.364344,155.224804 896.744186,155.72093 C896.124028,156.217057 895.441864,156.465116 894.697674,156.465116 C893.953485,156.465116 893.302328,156.186049 892.744186,155.627907 C892.186044,155.069765 891.906977,154.418608 891.906977,153.674419 L891.906977,10.4186047 C891.906977,9.67441488 892.186044,9.0232586 892.744186,8.46511628 C893.302328,7.90697395 893.953485,7.62790698 894.697674,7.62790698 C895.441864,7.62790698 896.124028,7.87596651 896.744186,8.37209302 C897.364344,8.86821953 897.674419,9.55038326 897.674419,10.4186047 L897.674419,153.674419 Z M1038.88372,114.976744 C1038.88372,120.682199 1037.79846,126.046487 1035.62791,131.069767 C1033.45735,136.093048 1030.51165,140.465098 1026.7907,144.186047 C1023.06975,147.906995 1018.6977,150.852702 1013.67442,153.023256 C1008.65114,155.193809 1003.28685,156.27907 997.581395,156.27907 L956.27907,156.27907 C955.286817,156.27907 954.573646,155.90698 954.139535,155.162791 C953.705424,154.418601 953.488372,153.612407 953.488372,152.744186 L953.488372,13.2093023 L941.209302,13.2093023 L941.209302,153.674419 C941.209302,154.54264 940.86822,155.224804 940.186047,155.72093 C939.503873,156.217057 938.790701,156.465116 938.046512,156.465116 C937.302322,156.465116 936.620158,156.186049 936,155.627907 C935.379842,155.069765 935.069767,154.418608 935.069767,153.674419 L935.069767,10.4186047 C935.069767,8.55813023 936.062006,7.62790698 938.046512,7.62790698 L994.046512,7.62790698 C999.007777,7.62790698 1003.6899,8.55813023 1008.09302,10.4186047 C1012.49615,12.2790791 1016.31006,14.8526967 1019.53488,18.1395349 C1022.75971,21.426373 1025.33332,25.2402884 1027.25581,29.5813953 C1029.1783,33.9225023 1030.13953,38.5736186 1030.13953,43.5348837 C1030.13953,50.3566233 1028.37211,56.651134 1024.83721,62.4186047 C1021.30231,68.1860753 1016.37212,72.5581247 1010.04651,75.5348837 C1014.26359,76.8992316 1018.17052,78.8837079 1021.76744,81.4883721 C1025.36436,84.0930363 1028.40309,87.1317656 1030.88372,90.6046512 C1033.36435,94.0775367 1035.31782,97.8914521 1036.74419,102.046512 C1038.17055,106.201571 1038.88372,110.511606 1038.88372,114.976744 L1038.88372,114.976744 Z M1024.37209,43.5348837 C1024.37209,39.3178084 1023.5659,35.3798633 1021.95349,31.7209302 C1020.34108,28.0619972 1018.17056,24.8682307 1015.44186,22.1395349 C1012.71316,19.4108391 1009.5194,17.2403181 1005.86047,15.627907 C1002.20153,14.0154958 998.263587,13.2093023 994.046512,13.2093023 L958.883721,13.2093023 L958.883721,73.6744186 L994.046512,73.6744186 C998.139555,73.6744186 1002.04649,72.8682251 1005.76744,71.255814 C1009.48839,69.6434028 1012.71316,67.4728819 1015.44186,64.744186 C1018.17056,62.0154902 1020.34108,58.8217237 1021.95349,55.1627907 C1023.5659,51.5038577 1024.37209,47.6279274 1024.37209,43.5348837 L1024.37209,43.5348837 Z M1033.11628,114.976744 C1033.11628,110.139511 1032.18606,105.550409 1030.32558,101.209302 C1028.46511,96.8681953 1025.9225,93.0852874 1022.69767,89.8604651 C1019.47285,86.6356428 1015.68994,84.0930326 1011.34884,82.2325581 C1007.00773,80.3720837 1002.41863,79.4418605 997.581395,79.4418605 C997.085269,79.4418605 996.775194,79.3798456 996.651163,79.255814 L958.883721,79.255814 L958.883721,150.697674 L997.581395,150.697674 C1002.54266,150.697674 1007.16277,149.767451 1011.44186,147.906977 C1015.72095,146.046502 1019.47285,143.503892 1022.69767,140.27907 C1025.9225,137.054247 1028.46511,133.27134 1030.32558,128.930233 C1032.18606,124.589126 1033.11628,119.938009 1033.11628,114.976744 L1033.11628,114.976744 Z M1170.7907,153.302326 C1170.7907,154.046515 1170.54264,154.759687 1170.04651,155.44186 C1169.55039,156.124034 1168.86822,156.465116 1168,156.465116 L1076.83721,156.465116 C1075.96899,156.465116 1075.25582,156.155042 1074.69767,155.534884 C1074.13953,154.914726 1073.86047,154.170547 1073.86047,153.302326 L1073.86047,10.4186047 C1073.86047,9.55038326 1074.17054,8.86821953 1074.7907,8.37209302 C1075.41086,7.87596651 1076.09302,7.62790698 1076.83721,7.62790698 L1168,7.62790698 C1168.74419,7.62790698 1169.39535,7.90697395 1169.95349,8.46511628 C1170.51163,9.0232586 1170.7907,9.67441488 1170.7907,10.4186047 C1170.7907,11.1627944 1170.51163,11.8139507 1169.95349,12.372093 C1169.39535,12.9302353 1168.74419,13.2093023 1168,13.2093023 L1079.44186,13.2093023 L1079.44186,71.0697674 L1148.46512,71.0697674 C1149.20931,71.0697674 1149.86046,71.3488344 1150.4186,71.9069767 C1150.97675,72.4651191 1151.25581,73.1162753 1151.25581,73.8604651 C1151.25581,74.6046549 1150.97675,75.2558112 1150.4186,75.8139535 C1149.86046,76.3720958 1149.20931,76.6511628 1148.46512,76.6511628 L1079.81395,76.6511628 L1079.62791,89.3023256 L1149.2093,89.3023256 C1151.19381,89.3023256 1152.18605,90.2945637 1152.18605,92.2790698 C1152.18605,93.0232595 1151.87597,93.7054233 1151.25581,94.3255814 C1150.63566,94.9457395 1149.95349,95.255814 1149.2093,95.255814 L1079.44186,95.255814 L1079.44186,150.139535 L1168,150.139535 C1168.74419,150.139535 1169.39535,150.480617 1169.95349,151.162791 C1170.51163,151.844965 1170.7907,152.558136 1170.7907,153.302326 L1170.7907,153.302326 Z M1274.04651,116.465116 C1274.04651,123.162824 1272.58916,129.023231 1269.67442,134.046512 C1266.75968,139.069793 1262.91475,143.22479 1258.13953,146.511628 C1253.36432,149.798466 1248.03104,152.279061 1242.13953,153.953488 C1236.24803,155.627915 1230.32561,156.465116 1224.37209,156.465116 C1213.8294,156.465116 1203.84501,154.418625 1194.4186,150.325581 C1184.9922,146.232538 1176.55818,140.651198 1169.11628,133.581395 C1168.37209,132.837206 1168,132.155042 1168,131.534884 C1168,130.790694 1168.31007,130.077523 1168.93023,129.395349 C1169.55039,128.713175 1170.29457,128.372093 1171.16279,128.372093 C1171.78295,128.372093 1172.4031,128.682167 1173.02326,129.302326 C1180.71322,135.75197 1188.68213,140.930213 1196.93023,144.837209 C1205.17834,148.744206 1214.44956,150.697674 1224.74419,150.697674 C1229.95351,150.697674 1235.13176,149.984503 1240.27907,148.55814 C1245.42638,147.131776 1250.0775,144.961255 1254.23256,142.046512 C1258.38762,139.131768 1261.73642,135.503898 1264.27907,131.162791 C1266.82172,126.821684 1268.09302,121.736463 1268.09302,115.906977 C1268.09302,111.193775 1266.97676,107.1318 1264.74419,103.72093 C1262.51162,100.31006 1259.59692,97.3953609 1256,94.9767442 C1252.40308,92.5581274 1248.27909,90.5426437 1243.62791,88.9302326 C1238.97672,87.3178214 1234.2946,85.9224865 1229.5814,84.744186 C1224.86819,83.5658856 1220.24808,82.54264 1215.72093,81.6744186 C1211.19378,80.8061972 1207.25583,79.9379888 1203.90698,79.0697674 C1199.81393,77.9534828 1195.87599,76.4341181 1192.09302,74.5116279 C1188.31006,72.5891377 1184.99226,70.2015647 1182.13953,67.3488372 C1179.28681,64.4961098 1177.02326,61.1783135 1175.34884,57.3953488 C1173.67441,53.6123842 1172.83721,49.3643647 1172.83721,44.6511628 C1172.83721,38.3255498 1174.29456,32.8372326 1177.2093,28.1860465 C1180.12405,23.5348605 1183.90695,19.6899377 1188.55814,16.6511628 C1193.20933,13.6123879 1198.35656,11.3178372 1204,9.76744186 C1209.64344,8.21704651 1215.19377,7.44186047 1220.65116,7.44186047 C1224.12405,7.44186047 1228.06199,7.81394977 1232.46512,8.55813953 C1236.86824,9.3023293 1241.2713,10.3875898 1245.67442,11.8139535 C1250.07754,13.2403172 1254.20153,14.9457265 1258.04651,16.9302326 C1261.89149,18.9147386 1265.11627,21.1472744 1267.72093,23.627907 C1268.09303,24.0000019 1268.37209,24.3100763 1268.55814,24.5581395 C1268.74419,24.8062028 1268.83721,25.240307 1268.83721,25.8604651 C1268.83721,26.6046549 1268.52713,27.2868186 1267.90698,27.9069767 C1267.28682,28.5271349 1266.60465,28.8372093 1265.86047,28.8372093 C1265.6124,28.8372093 1265.14729,28.6511647 1264.46512,28.2790698 C1263.78294,27.9069749 1263.03876,27.4418633 1262.23256,26.8837209 C1261.42635,26.3255786 1260.68217,25.8294595 1260,25.3953488 C1259.31783,24.9612381 1258.7907,24.6201563 1258.4186,24.372093 C1252.83718,21.0232391 1246.88375,18.3565991 1240.55814,16.372093 C1234.23253,14.387587 1227.72096,13.3953488 1221.02326,13.3953488 C1216.31005,13.3953488 1211.47289,13.9844902 1206.51163,15.1627907 C1201.55036,16.3410912 1196.99227,18.1705302 1192.83721,20.6511628 C1188.68215,23.1317953 1185.27133,26.3255619 1182.60465,30.2325581 C1179.93797,34.1395544 1178.60465,38.8216781 1178.60465,44.2790698 C1178.60465,50.2325879 1179.96898,55.1007563 1182.69767,58.8837209 C1185.42637,62.6666856 1189.02323,65.7674298 1193.48837,68.1860465 C1197.95351,70.6046633 1203.03873,72.5581321 1208.74419,74.0465116 C1214.44964,75.5348912 1220.31005,76.9612335 1226.32558,78.3255814 C1232.34112,79.6899293 1238.20152,81.1782865 1243.90698,82.7906977 C1249.61243,84.4031088 1254.69765,86.6046372 1259.16279,89.3953488 C1263.62793,92.1860605 1267.22479,95.7209088 1269.95349,100 C1272.68218,104.279091 1274.04651,109.767408 1274.04651,116.465116 L1274.04651,116.465116 Z" id="WEEKLYVIBES"></path>
        </g>
    </g>
</svg>