<svg width="1280" height="164" viewBox="0 0 1280 164" xmlns="http://www.w3.org/2000/svg"><title>base vectoersz large</title><defs><linearGradient x1="90.531%" y1="50%" x2="16.879%" y2="50%" id="a"><stop stop-color="#5B7AD6" offset="0%"/><stop stop-color="#4CA055" offset="59.56%"/><stop stop-color="#D84141" offset="100%"/></linearGradient></defs><path d="M150.326 153.674c0 .745-.28 1.396-.838 1.954-.558.558-1.209.837-1.953.837-.992 0-1.737-.372-2.233-1.116L77.21 59.907 9.116 154.605c-.496.868-1.24 1.302-2.232 1.302-.869 0-1.582-.31-2.14-.93-.558-.62-.837-1.303-.837-2.047 0-.372 1.364-2.573 4.093-6.604 2.729-4.031 6.357-9.21 10.884-15.535l15.442-21.582a3210.047 3210.047 0 0 1 17.953-24.837c6.202-8.496 12.341-16.93 18.419-25.302 6.077-8.372 11.597-16 16.558-22.884S96.466 23.411 100 18.512c3.535-4.9 5.798-8.093 6.79-9.582.497-.744 1.179-1.116 2.047-1.116.744 0 1.458.279 2.14.837.682.558 1.023 1.271 1.023 2.14 0 .496-.713 1.798-2.14 3.907a441.905 441.905 0 0 1-5.302 7.628A764.73 764.73 0 0 1 97.581 32a688.45 688.45 0 0 1-7.348 9.86 384.09 384.09 0 0 0-6.14 8.28c-1.736 2.418-2.853 4-3.349 4.744l63.814 89.674V10.418c0-.868.31-1.55.93-2.046.62-.496 1.303-.744 2.047-.744.744 0 1.395.279 1.953.837.559.558.838 1.21.838 1.954v143.255zM89.488 10.791c0 .248-1.054 1.953-3.162 5.116-2.109 3.163-4.93 7.256-8.466 12.279a6308.515 6308.515 0 0 1-12.093 17.116 5324.253 5324.253 0 0 1-14.046 19.721 26883.58 26883.58 0 0 1-14.326 20 3310.342 3310.342 0 0 1-13.023 18.047 4491.285 4491.285 0 0 0-10.046 13.86c-2.73 3.783-4.528 6.295-5.396 7.535-.496.868-1.24 1.302-2.232 1.302-.993 0-1.737-.31-2.233-.93-.496-.62-.744-1.364-.744-2.232V11.349c0-.744.279-1.396.837-1.954.558-.558 1.21-.837 1.954-.837s1.426.248 2.046.744c.62.496.93 1.179.93 2.047v102.698L84.28 9.117c.496-.869 1.302-1.303 2.419-1.303.744 0 1.395.279 1.953.837.558.558.837 1.271.837 2.14zm197.024 142.511c0 .745-.248 1.458-.745 2.14-.496.682-1.178 1.023-2.046 1.023h-91.163c-.868 0-1.581-.31-2.14-.93-.558-.62-.837-1.364-.837-2.233V10.42c0-.869.31-1.55.93-2.047.62-.496 1.303-.744 2.047-.744h91.163c.744 0 1.395.279 1.953.837.559.558.838 1.21.838 1.954s-.28 1.395-.838 1.953c-.558.558-1.209.837-1.953.837h-88.558v57.86h69.023c.744 0 1.395.28 1.954.838.558.558.837 1.21.837 1.953 0 .745-.28 1.396-.837 1.954-.559.558-1.21.837-1.954.837h-68.651l-.186 12.651h69.581c1.985 0 2.977.993 2.977 2.977 0 .744-.31 1.426-.93 2.047-.62.62-1.303.93-2.047.93h-69.767v54.884h88.558c.744 0 1.395.34 1.953 1.023.559.682.838 1.395.838 2.14zm119.441 0c0 .745-.248 1.458-.744 2.14-.496.682-1.178 1.023-2.046 1.023H312c-.868 0-1.581-.31-2.14-.93-.558-.62-.837-1.364-.837-2.233V10.42c0-.869.31-1.55.93-2.047.62-.496 1.303-.744 2.047-.744h91.163c.744 0 1.395.279 1.953.837.558.558.837 1.21.837 1.954s-.279 1.395-.837 1.953c-.558.558-1.209.837-1.953.837h-88.558v57.86h69.023c.744 0 1.395.28 1.953.838.559.558.838 1.21.838 1.953 0 .745-.28 1.396-.838 1.954-.558.558-1.209.837-1.953.837h-68.651l-.186 12.651h69.581c1.985 0 2.977.993 2.977 2.977 0 .744-.31 1.426-.93 2.047-.62.62-1.303.93-2.047.93h-69.767v54.884h88.558c.744 0 1.395.34 1.953 1.023.558.682.837 1.395.837 2.14zm111.07.558c0 .745-.34 1.365-1.023 1.86-.682.497-1.333.745-1.953.745-.993 0-1.737-.372-2.233-1.116l-50.047-69.954-27.534 27.535v39.442c0 .744-.31 1.395-.93 1.954-.62.558-1.303.837-2.047.837-.744 0-1.427-.248-2.047-.744-.62-.497-.93-1.179-.93-2.047V11.35c0-.868.31-1.55.93-2.047.62-.496 1.303-.744 2.047-.744.744 0 1.426.28 2.046.837.62.558.93 1.21.93 1.954v68.465l71.256-71.442c.62-.62 1.24-.93 1.86-.93.745 0 1.427.34 2.047 1.023.62.682.93 1.333.93 1.954 0 .744-.31 1.426-.93 2.046l-75.162 75.349v17.116c.496-.496 1.488-1.52 2.976-3.07a623.233 623.233 0 0 0 5.024-5.302 184.751 184.751 0 0 1 6.046-6.14c2.17-2.108 4.186-4.061 6.047-5.86 1.86-1.798 3.472-3.287 4.837-4.465 1.364-1.178 2.232-1.767 2.604-1.767 1.117 0 1.985.372 2.605 1.116.744 1.116 2.574 3.69 5.488 7.72 2.915 4.032 6.326 8.714 10.233 14.047a9506.094 9506.094 0 0 1 12.372 16.93 1708.393 1708.393 0 0 1 12 16.652c3.659 5.147 6.667 9.488 9.023 13.023 2.357 3.535 3.535 5.55 3.535 6.046zm123.163-.186c0 1.86-.992 2.791-2.977 2.791h-88.372c-1.86 0-2.79-.93-2.79-2.79V11.348c0-.744.279-1.396.837-1.954.558-.558 1.209-.837 1.953-.837s1.396.28 1.954.837c.558.558.837 1.21.837 1.954v139.535h12.465V10.604c0-.744.31-1.426.93-2.046.62-.62 1.303-.93 2.047-.93 1.984 0 2.977.992 2.977 2.977v140.279h67.162c1.985 0 2.977.93 2.977 2.79zM717.581 10.42c0 .496-.96 2.263-2.883 5.302-1.923 3.039-4.372 6.79-7.35 11.256a3146.69 3146.69 0 0 1-9.674 14.418 1404.644 1404.644 0 0 1-10.046 14.698 1421.59 1421.59 0 0 1-8.465 12.093c-2.419 3.41-4 5.612-4.744 6.605-.497.868-1.303 1.302-2.419 1.302s-2.047-.496-2.79-1.488l-44.652-62.14c-.372-.372-.558-.868-.558-1.488 0-.868.341-1.582 1.023-2.14.682-.558 1.396-.837 2.14-.837.744 0 1.426.372 2.046 1.116l42.605 59.163L712.186 8.93c.496-.868 1.302-1.302 2.419-1.302.744 0 1.426.279 2.046.837.62.558.93 1.21.93 1.954zm-43.534 143.255c0 .745-.28 1.396-.838 1.954-.558.558-1.209.837-1.953.837s-1.396-.279-1.954-.837c-.558-.558-.837-1.21-.837-1.954v-49.488c-.992-1.364-3.349-4.558-7.07-9.581a7933.558 7933.558 0 0 1-13.116-17.768 3223.175 3223.175 0 0 1-15.814-21.674l-15.349-21.21c-4.713-6.511-8.589-11.968-11.628-16.372-3.038-4.403-4.558-6.852-4.558-7.348 0-.745.341-1.365 1.023-1.86.683-.497 1.396-.745 2.14-.745.868 0 1.612.372 2.233 1.116l67.162 92.837c.372.62.559 1.179.559 1.675v50.418zM860.093 10.42c0 .248-.775 2.356-2.326 6.325-1.55 3.97-3.565 9.147-6.046 15.535a3175.1 3175.1 0 0 1-8.558 21.768 5294.007 5294.007 0 0 1-10.047 25.116 5492.924 5492.924 0 0 0-10.232 25.581 6135.955 6135.955 0 0 1-9.21 23.07 1845.757 1845.757 0 0 0-6.976 17.581c-1.86 4.776-3.04 7.845-3.535 9.21-.496 1.24-1.365 1.86-2.605 1.86a9.48 9.48 0 0 0-1.395-.744c-.558-.248-.961-.62-1.21-1.116-.496-1.24-1.674-4.28-3.534-9.117-1.86-4.837-4.124-10.728-6.791-17.674a4958.108 4958.108 0 0 0-8.93-23.07 25979.48 25979.48 0 0 1-9.954-25.581 3194.772 3194.772 0 0 1-9.674-25.21c-3.101-8.186-5.86-15.441-8.28-21.767a2675.94 2675.94 0 0 1-5.86-15.442c-1.488-3.969-2.232-6.015-2.232-6.14 0-.868.279-1.58.837-2.139.558-.558 1.21-.837 1.953-.837 1.489 0 2.419.62 2.791 1.86l43.163 112.372L835.907 9.488c.372-1.24 1.302-1.86 2.79-1.86.745 0 1.396.279 1.954.837.558.558.837 1.21.837 1.954 0 .248-.62 1.984-1.86 5.209-1.24 3.225-2.884 7.473-4.93 12.744a7721.035 7721.035 0 0 0-6.977 18.047 1761.436 1761.436 0 0 1-8.186 20.837 3680.47 3680.47 0 0 0-8.372 21.116 4779.432 4779.432 0 0 1-7.535 19.07 2232.828 2232.828 0 0 1-5.86 14.605c-1.613 3.969-2.667 6.511-3.163 7.627l5.953 15.814 53.954-136c.372-1.24 1.302-1.86 2.79-1.86.745 0 1.396.279 1.954.837.558.558.837 1.21.837 1.954zm37.581 143.255c0 .869-.31 1.55-.93 2.047-.62.496-1.302.744-2.046.744-.745 0-1.396-.279-1.954-.837-.558-.558-.837-1.21-.837-1.954V10.42c0-.745.279-1.396.837-1.954.558-.558 1.21-.837 1.954-.837s1.426.248 2.046.744c.62.496.93 1.178.93 2.047v143.255zm141.21-38.697c0 5.705-1.086 11.07-3.256 16.093s-5.116 9.395-8.837 13.116-8.093 6.667-13.117 8.837c-5.023 2.17-10.387 3.256-16.093 3.256H956.28c-.992 0-1.705-.372-2.14-1.116a4.717 4.717 0 0 1-.65-2.419V13.21h-12.28v140.465c0 .869-.34 1.55-1.023 2.047-.682.496-1.395.744-2.14.744-.744 0-1.426-.279-2.046-.837-.62-.558-.93-1.21-.93-1.954V10.42c0-1.86.992-2.791 2.977-2.791h56c4.96 0 9.643.93 14.046 2.79 4.403 1.861 8.217 4.435 11.442 7.722 3.225 3.286 5.798 7.1 7.72 11.441 1.923 4.342 2.885 8.993 2.885 13.954 0 6.822-1.768 13.116-5.303 18.884-3.535 5.767-8.465 10.14-14.79 13.116a41.804 41.804 0 0 1 11.72 5.953c3.597 2.605 6.636 5.644 9.117 9.117 2.48 3.473 4.434 7.286 5.86 11.442a39.547 39.547 0 0 1 2.14 12.93zm-14.512-71.442c0-4.217-.806-8.155-2.419-11.814-1.612-3.659-3.782-6.853-6.511-9.581-2.729-2.73-5.923-4.9-9.582-6.512-3.658-1.613-7.596-2.419-11.813-2.419h-35.163v60.465h35.163c4.093 0 8-.806 11.72-2.418 3.721-1.613 6.946-3.783 9.675-6.512 2.729-2.729 4.9-5.922 6.511-9.581 1.613-3.66 2.42-7.535 2.42-11.628zm8.744 71.442c0-4.837-.93-9.427-2.79-13.768-1.86-4.34-4.404-8.124-7.628-11.349-3.225-3.224-7.008-5.767-11.35-7.627-4.34-1.86-8.93-2.791-13.767-2.791-.496 0-.806-.062-.93-.186h-37.767v71.442h38.697c4.962 0 9.582-.93 13.86-2.791 4.28-1.86 8.032-4.403 11.257-7.628 3.224-3.225 5.767-7.008 7.628-11.349 1.86-4.34 2.79-8.992 2.79-13.953zm137.675 38.325c0 .745-.248 1.458-.744 2.14-.497.682-1.179 1.023-2.047 1.023h-91.163c-.868 0-1.581-.31-2.14-.93-.557-.62-.837-1.364-.837-2.233V10.42c0-.869.31-1.55.93-2.047.62-.496 1.303-.744 2.047-.744H1168c.744 0 1.395.279 1.953.837.559.558.838 1.21.838 1.954s-.28 1.395-.838 1.953c-.558.558-1.209.837-1.953.837h-88.558v57.86h69.023c.744 0 1.395.28 1.954.838.558.558.837 1.21.837 1.953 0 .745-.28 1.396-.837 1.954-.559.558-1.21.837-1.954.837h-68.651l-.186 12.651h69.581c1.985 0 2.977.993 2.977 2.977 0 .744-.31 1.426-.93 2.047-.62.62-1.303.93-2.047.93h-69.767v54.884H1168c.744 0 1.395.34 1.953 1.023.559.682.838 1.395.838 2.14zm103.256-36.837c0 6.698-1.458 12.558-4.373 17.582-2.914 5.023-6.76 9.178-11.534 12.465-4.776 3.286-10.109 5.767-16 7.441-5.892 1.675-11.814 2.512-17.768 2.512-10.543 0-20.527-2.046-29.953-6.14a86.443 86.443 0 0 1-25.303-16.744c-.744-.744-1.116-1.426-1.116-2.046 0-.744.31-1.457.93-2.14.62-.682 1.365-1.023 2.233-1.023.62 0 1.24.31 1.86.93 7.69 6.45 15.66 11.628 23.907 15.535 8.248 3.907 17.52 5.86 27.814 5.86 5.21 0 10.388-.712 15.535-2.139 5.147-1.426 9.799-3.597 13.954-6.511 4.155-2.915 7.503-6.543 10.046-10.884 2.543-4.341 3.814-9.427 3.814-15.256 0-4.713-1.116-8.775-3.349-12.186-2.232-3.41-5.147-6.326-8.744-8.744-3.597-2.419-7.72-4.434-12.372-6.047a165.177 165.177 0 0 0-14.047-4.186 255.914 255.914 0 0 0-13.86-3.07c-4.527-.868-8.465-1.736-11.814-2.604a62.04 62.04 0 0 1-11.814-4.558c-3.783-1.923-7.1-4.31-9.953-7.163-2.853-2.853-5.117-6.17-6.791-9.954-1.675-3.783-2.512-8.03-2.512-12.744 0-6.325 1.458-11.814 4.372-16.465 2.915-4.651 6.698-8.496 11.35-11.535 4.65-3.039 9.798-5.333 15.441-6.884 5.643-1.55 11.194-2.325 16.651-2.325 3.473 0 7.411.372 11.814 1.116a93.263 93.263 0 0 1 13.21 3.256c4.403 1.426 8.527 3.132 12.372 5.116 3.844 1.985 7.07 4.217 9.674 6.698.372.372.651.682.837.93.186.248.28.682.28 1.302 0 .745-.31 1.427-.931 2.047-.62.62-1.302.93-2.047.93-.248 0-.713-.186-1.395-.558a25.036 25.036 0 0 1-2.232-1.395 69.617 69.617 0 0 0-2.233-1.489 94.578 94.578 0 0 1-1.581-1.023 82.688 82.688 0 0 0-17.86-8 64.879 64.879 0 0 0-19.536-2.977c-4.713 0-9.55.59-14.511 1.768-4.962 1.178-9.52 3.008-13.675 5.488-4.155 2.48-7.566 5.675-10.232 9.582-2.667 3.907-4 8.589-4 14.046 0 5.954 1.364 10.822 4.093 14.605 2.728 3.783 6.325 6.883 10.79 9.302 4.466 2.419 9.55 4.372 15.256 5.86a562.993 562.993 0 0 0 17.582 4.28 346.287 346.287 0 0 1 17.581 4.465c5.705 1.612 10.79 3.814 15.256 6.604 4.465 2.791 8.062 6.326 10.79 10.605 2.73 4.28 4.094 9.767 4.094 16.465z" fill="url(#a)" fill-rule="evenodd"/></svg>