<?xml version="1.0" encoding="UTF-8" standalone="no"?>
<svg width="291px" height="166px" viewBox="0 0 291 166" version="1.1" xmlns="http://www.w3.org/2000/svg" xmlns:xlink="http://www.w3.org/1999/xlink">
    <!-- Generator: Sketch 40.1 (33804) - http://www.bohemiancoding.com/sketch -->
    <title>Group</title>
    <desc>Created with Sketch.</desc>
    <defs>
        <linearGradient x1="50%" y1="0%" x2="50%" y2="100%" id="linearGradient-1">
            <stop stop-color="#BF66FF" offset="0%"></stop>
            <stop stop-color="#9166FF" offset="100%"></stop>
        </linearGradient>
        <linearGradient x1="50%" y1="0%" x2="50%" y2="100%" id="linearGradient-2">
            <stop stop-color="#FF66E6" offset="0%"></stop>
            <stop stop-color="#D966FF" offset="100%"></stop>
        </linearGradient>
        <linearGradient x1="50%" y1="0%" x2="50%" y2="100%" id="linearGradient-3">
            <stop stop-color="#BF66FF" offset="0%"></stop>
            <stop stop-color="#E666FF" offset="100%"></stop>
        </linearGradient>
        <linearGradient x1="50%" y1="0%" x2="50%" y2="100%" id="linearGradient-4">
            <stop stop-color="#E666FF" offset="0%"></stop>
            <stop stop-color="#A666FF" offset="100%"></stop>
        </linearGradient>
        <linearGradient x1="50%" y1="0%" x2="50%" y2="97.5027902%" id="linearGradient-5">
            <stop stop-color="#D966FF" offset="0%"></stop>
            <stop stop-color="#FF66FF" offset="100%"></stop>
        </linearGradient>
        <linearGradient x1="50%" y1="0%" x2="50%" y2="100%" id="linearGradient-6">
            <stop stop-color="#AA33FF" offset="0%"></stop>
            <stop stop-color="#BF66FF" offset="100%"></stop>
        </linearGradient>
    </defs>
    <g id="Page-1" stroke="none" stroke-width="1" fill="none" fill-rule="evenodd">
        <g id="Artboard" transform="translate(-25.000000, -190.000000)">
            <g id="Group" transform="translate(25.000000, 190.000000)">
                <g id="Group-6" transform="translate(218.000000, 84.000000)"></g>
                <g id="Group-6-Copy-2" transform="translate(5.000000, 84.000000)"></g>
                <g id="side" transform="translate(5.000000, 84.000000)">
                    <g id="headphones" transform="translate(107.000000, 6.000000)">
                        <path d="M11.836326,62.8563535 L11.836326,43.0898605 C9.65210462,43.6237395 8.02599757,45.5963721 8.02599757,47.9425302 L8.02599757,58.0036837 C8.02599757,60.3498419 9.65210462,62.3224744 11.836326,62.8563535 L11.836326,62.8563535 Z" id="Shape" fill="url(#linearGradient-1)"></path>
                        <path d="M53.2092214,43.0898605 L53.2092214,46.5045674 C53.2092214,47.1595814 52.6781509,47.690614 52.02309,47.690614 C52.0224574,47.690614 52.0224574,50.062707 52.0224574,50.062707 C52.6781509,50.062707 53.2092214,50.5937395 53.2092214,51.2487535 L53.2092214,62.8563535 C55.3934428,62.3224744 57.0195499,60.3498419 57.0195499,58.0036837 L57.0195499,47.9425302 C57.0195499,45.5963721 55.3934428,43.6237395 53.2092214,43.0898605 L53.2092214,43.0898605 Z" id="Shape" fill="url(#linearGradient-1)"></path>
                        <path d="M20.1392457,40.5743349 L15.3947202,40.5743349 C14.7406083,40.5743349 14.2085888,41.1064744 14.2085888,41.7603814 L14.2085888,64.3292651 C14.2085888,64.9833302 14.7406083,65.5153116 15.3947202,65.5153116 L20.1392457,65.5153116 C20.7933577,65.5153116 21.3253771,64.9833302 21.3253771,64.3292651 L21.3253771,41.7603814 C21.3253771,41.1064744 20.7933577,40.5743349 20.1392457,40.5743349 L20.1392457,40.5743349 Z" id="Shape" fill="url(#linearGradient-2)"></path>
                        <path d="M50.8369586,46.5045674 L50.8369586,41.7603814 C50.8369586,41.1064744 50.3049392,40.5743349 49.6508273,40.5743349 L44.9063017,40.5743349 C44.2521898,40.5743349 43.7201703,41.1064744 43.7201703,41.7603814 L43.7201703,64.3292651 C43.7201703,64.9833302 44.2521898,65.5153116 44.9063017,65.5153116 L49.6508273,65.5153116 C50.3049392,65.5153116 50.8369586,64.9833302 50.8369586,64.3292651 L50.8369586,51.2487535 C50.8369586,50.5938977 51.3677129,50.0630233 52.0224574,50.062707 L52.0224574,47.690614 C51.3675547,47.6901395 50.8369586,47.1592651 50.8369586,46.5045674 L50.8369586,46.5045674 Z" id="Shape" fill="url(#linearGradient-2)"></path>
                        <path d="M32.5227737,4.69611163 C43.4914842,4.69611163 53.2060584,10.163786 59.087056,18.5156093 L61.0062165,17.1718977 C59.8476034,15.5294605 58.54191,13.978586 57.1253528,12.5621302 C50.5537105,5.99095814 41.8163504,2.37209302 32.5227737,2.37209302 C23.2291971,2.37209302 14.491837,5.99095814 7.9203528,12.5621302 C6.50395377,13.978586 5.19826034,15.5294605 4.0396472,17.1717395 L5.95849148,18.5157674 C11.8394891,10.1639442 21.5540633,4.69611163 32.5227737,4.69611163 L32.5227737,4.69611163 Z" id="Shape" fill="url(#linearGradient-1)"></path>
                        <path d="M59.087056,18.5156093 C53.2060584,10.163786 43.4914842,4.69611163 32.5227737,4.69611163 C21.5540633,4.69611163 11.8394891,10.163786 5.95849148,18.5157674 C2.24036496,23.7960465 0.0537712895,30.2285302 0.0537712895,37.1627907 C0.0537712895,39.6719907 0.341447689,42.1710698 0.909209246,44.5934512 L0.909209246,52.973107 C0.909209246,53.6281209 1.44027981,54.1591535 2.09534063,54.1591535 C2.75040146,54.1591535 3.28147202,53.6281209 3.28147202,52.973107 L3.28147202,44.4549209 C3.28147202,44.362093 3.27055961,44.2695814 3.24889294,44.1792837 C2.7029562,41.8946419 2.42603406,39.5339349 2.42603406,37.1627907 C2.42603406,20.5685767 15.9273723,7.06820465 32.5227737,7.06820465 C49.1181752,7.06820465 62.6195134,20.5685767 62.6195134,37.1627907 C62.6195134,39.5339349 62.3427494,41.8946419 61.7966545,44.1792837 C61.7749878,44.2695814 61.7640754,44.362093 61.7640754,44.4549209 L61.7640754,52.973107 C61.7640754,53.6281209 62.295146,54.1591535 62.9502068,54.1591535 C63.6052676,54.1591535 64.1363382,53.6281209 64.1363382,52.973107 L64.1363382,44.5934512 C64.7039416,42.1712279 64.9917762,39.6719907 64.9917762,37.1627907 C64.9917762,30.2285302 62.8051825,23.7958884 59.087056,18.5156093 L59.087056,18.5156093 Z" id="Shape" fill="#2E2E2E"></path>
                        <path d="M20.1392457,38.2022419 L15.3947202,38.2022419 C13.8222263,38.2022419 12.4856934,39.2277767 12.0164599,40.644707 C8.42785888,41.1369953 5.65373479,44.2210326 5.65373479,47.9425302 L5.65373479,58.0036837 C5.65373479,61.7093674 8.4042944,64.7836 11.9707543,65.2956558 C12.393017,66.7894419 13.7675061,67.8874047 15.3947202,67.8874047 L20.1392457,67.8874047 C22.1014234,67.8874047 23.6976399,66.2913023 23.6976399,64.3292651 L23.6976399,41.7603814 C23.6976399,39.7983442 22.1014234,38.2022419 20.1392457,38.2022419 L20.1392457,38.2022419 Z M21.3253771,64.3292651 C21.3253771,64.9833302 20.7933577,65.5153116 20.1392457,65.5153116 L15.3947202,65.5153116 C14.7406083,65.5153116 14.2085888,64.9833302 14.2085888,64.3292651 L14.2085888,41.7603814 C14.2085888,41.1064744 14.7406083,40.5743349 15.3947202,40.5743349 L20.1392457,40.5743349 C20.7933577,40.5743349 21.3253771,41.1064744 21.3253771,41.7603814 L21.3253771,64.3292651 L21.3253771,64.3292651 Z M8.02599757,47.9425302 C8.02599757,45.5963721 9.65210462,43.6237395 11.836326,43.0898605 L11.836326,62.8563535 C9.65210462,62.3224744 8.02599757,60.3498419 8.02599757,58.0036837 L8.02599757,47.9425302 L8.02599757,47.9425302 Z" id="Shape" fill="#2E2E2E"></path>
                        <path d="M53.0290876,40.644707 C52.559854,39.2277767 51.2233212,38.2022419 49.6508273,38.2022419 L44.9063017,38.2022419 C42.9441241,38.2022419 41.3479075,39.7983442 41.3479075,41.7603814 L41.3479075,64.3292651 C41.3479075,66.2913023 42.9441241,67.8874047 44.9063017,67.8874047 L49.6508273,67.8874047 C51.2780414,67.8874047 52.6525304,66.7892837 53.0747932,65.2956558 C56.6414112,64.7836 59.3918127,61.7095256 59.3918127,58.0036837 L59.3918127,47.9425302 C59.3918127,44.2210326 56.6176886,41.1369953 53.0290876,40.644707 L53.0290876,40.644707 Z M57.0195499,58.0036837 C57.0195499,60.3498419 55.3934428,62.3224744 53.2092214,62.8563535 L53.2092214,51.2487535 C53.2092214,50.5937395 52.6781509,50.062707 52.02309,50.062707 C51.3677129,50.0630233 50.8369586,50.5938977 50.8369586,51.2487535 L50.8369586,64.3292651 C50.8369586,64.9833302 50.3049392,65.5153116 49.6508273,65.5153116 L44.9063017,65.5153116 C44.2521898,65.5153116 43.7201703,64.9833302 43.7201703,64.3292651 L43.7201703,41.7603814 C43.7201703,41.1064744 44.2521898,40.5743349 44.9063017,40.5743349 L49.6508273,40.5743349 C50.3049392,40.5743349 50.8369586,41.1064744 50.8369586,41.7603814 L50.8369586,46.5045674 C50.8369586,47.1594233 51.3677129,47.6902977 52.0224574,47.690614 C52.6781509,47.690614 53.2092214,47.1595814 53.2092214,46.5045674 L53.2092214,43.0898605 C55.3934428,43.6237395 57.0195499,45.5963721 57.0195499,47.9425302 L57.0195499,58.0036837 L57.0195499,58.0036837 Z" id="Shape" fill="#2E2E2E"></path>
                        <path d="M32.5227737,2.37209302 C41.8163504,2.37209302 50.5537105,5.99095814 57.1251946,12.5621302 C58.5417518,13.978586 59.8474453,15.5296186 61.0060584,17.1718977 C61.2390146,17.502093 61.6057664,17.6769953 61.9782117,17.6769953 C62.2144891,17.6769953 62.4529805,17.6066233 62.6607908,17.4600279 C63.1961314,17.0825488 63.3240754,16.342614 62.9464112,15.8071535 C61.7095134,14.0535442 60.3152555,12.3971907 58.8025426,10.884586 C51.783017,3.86556279 42.4500608,0 32.5227737,0 C22.5954866,0 13.2625304,3.86556279 6.24284672,10.8847442 C4.73013382,12.3973488 3.33587591,14.0537023 2.0989781,15.8073116 C1.72131387,16.342614 1.84925791,17.0825488 2.38459854,17.460186 C2.91993917,17.8378233 3.66008516,17.7098884 4.03759124,17.174586 C5.19826034,15.5294605 6.50379562,13.978586 7.9203528,12.5621302 C14.491837,5.99095814 23.2291971,2.37209302 32.5227737,2.37209302 L32.5227737,2.37209302 Z" id="Shape" fill="#53337F"></path>
                    </g>
                    <rect id="Rectangle-10" fill="#000000" x="123" y="65" width="4" height="5"></rect>
                    <rect id="Rectangle-14-Copy" fill="url(#linearGradient-3)" x="213" y="0" width="65" height="82" rx="1"></rect>
                    <g id="Group-5-Copy" transform="translate(238.000000, 10.000000)">
                        <circle id="Oval-4" stroke="#FFFFFF" fill="#000000" cx="7.5" cy="7.5" r="7.5"></circle>
                        <circle id="Oval-4-Copy" fill="#FFFFFF" cx="7.5" cy="7.5" r="2.5"></circle>
                    </g>
                    <g id="Group-5-Copy-2" transform="translate(233.000000, 47.000000)">
                        <circle id="Oval-4" stroke="#FFFFFF" stroke-width="2" fill="#000000" cx="12.5" cy="12.5" r="12.5"></circle>
                        <circle id="Oval-4-Copy" fill="#FFFFFF" cx="12.5" cy="12.5" r="4.16666667"></circle>
                    </g>
                    <rect id="Rectangle-14-Copy" fill="url(#linearGradient-3)" x="0" y="0" width="65" height="82" rx="1"></rect>
                    <g id="Group-5-Copy" transform="translate(25.000000, 10.000000)">
                        <circle id="Oval-4" stroke="#FFFFFF" fill="#000000" cx="7.5" cy="7.5" r="7.5"></circle>
                        <circle id="Oval-4-Copy" fill="#FFFFFF" cx="7.5" cy="7.5" r="2.5"></circle>
                    </g>
                    <g id="Group-5-Copy-2" transform="translate(20.000000, 47.000000)">
                        <circle id="Oval-4" stroke="#FFFFFF" stroke-width="2" fill="#000000" cx="12.5" cy="12.5" r="12.5"></circle>
                        <circle id="Oval-4-Copy" fill="#FFFFFF" cx="12.5" cy="12.5" r="4.16666667"></circle>
                    </g>
                </g>
                <g id="musical-note-(1)" transform="translate(38.000000, 0.000000)" fill="url(#linearGradient-4)">
                    <g id="Capa_1">
                        <path d="M9.27901765,2.99330018 C8.55803741,2.43698024 7.57058824,1.67487436 7.57058824,1.26176471 C7.57058824,0.564955147 7.00563309,0 6.30882353,0 C5.61201397,0 5.04705882,0.564955147 5.04705882,1.26176471 L5.04705882,12.8376673 C4.65185046,12.6977297 4.22841011,12.6176471 3.78529412,12.6176471 C1.69470772,12.6176471 0,14.3123548 0,16.4029412 C0,18.4935276 1.69470772,20.1882353 3.78529412,20.1882353 C5.87588051,20.1882353 7.57058824,18.4935276 7.57058824,16.4029412 L7.57058824,4.86146112 C7.62634246,4.9045977 7.68178125,4.94832574 7.73737776,4.9913046 C9.16100322,6.08951305 10.0941176,6.88702721 10.0941176,7.92116167 C10.0941176,9.52857105 9.23911434,10.4256069 9.21462822,10.4511576 C8.71496939,10.936937 8.70357408,11.735713 9.18935349,12.2353718 C9.43669881,12.4898145 9.76523079,12.6176471 10.0942359,12.6176471 C10.4110572,12.6176471 10.7283516,12.4990412 10.9735676,12.2606071 C11.1419344,12.0970508 12.6176076,10.5854567 12.6176076,7.92112224 C12.6176471,5.56950827 10.7664411,4.14107233 9.27901765,2.99330018 L9.27901765,2.99330018 Z" id="Shape"></path>
                    </g>
                </g>
                <g id="musical-note-(1)-copy" transform="translate(158.000000, 12.000000)" fill="#AE5DE8">
                    <g id="Capa_1">
                        <path d="M5.68372876,1.83350296 C5.24210269,1.49273718 4.6372549,1.02592019 4.6372549,0.772875817 C4.6372549,0.346055147 4.29119975,0 3.86437908,0 C3.43755842,0 3.09150327,0.346055147 3.09150327,0.772875817 L3.09150327,7.86352839 C2.84942407,7.77781163 2.59005178,7.72875817 2.31862745,7.72875817 C1.03806883,7.72875817 0,8.766827 0,10.0473856 C0,11.3279442 1.03806883,12.3660131 2.31862745,12.3660131 C3.59918607,12.3660131 4.6372549,11.3279442 4.6372549,10.0473856 L4.6372549,2.97781807 C4.67140635,3.00424076 4.70536458,3.03102574 4.73941942,3.05735182 C5.61144072,3.73004361 6.18300654,4.21854943 6.18300654,4.85199362 C6.18300654,5.8365891 5.65928656,6.3860555 5.64428794,6.40170624 C5.33822912,6.69926343 5.33124908,7.18854213 5.62880627,7.49460095 C5.78031408,7.65045619 5.98155162,7.72875817 6.18307899,7.72875817 C6.37714328,7.72875817 6.5714974,7.65610784 6.72170098,7.51005847 C6.8248316,7.40987444 7.72873402,6.48396921 7.72873402,4.85196946 C7.72875817,3.41152216 6.59482858,2.53655428 5.68372876,1.83350296 L5.68372876,1.83350296 Z" id="Shape"></path>
                    </g>
                </g>
                <g id="musical-note-(1)-copy-2" transform="translate(179.503932, 53.470136) rotate(-345.000000) translate(-179.503932, -53.470136) translate(175.003932, 45.970136)" fill="url(#linearGradient-5)">
                    <g id="Capa_1">
                        <path d="M6.55814857,2.11558034 C6.04858002,1.72238906 5.35067873,1.18375407 5.35067873,0.891779789 C5.35067873,0.3992944 4.95138433,0 4.45889894,0 C3.96641356,0 3.56711916,0.3992944 3.56711916,0.891779789 L3.56711916,9.07330199 C3.287797,8.97439804 2.98852128,8.91779789 2.67533937,8.91779789 C1.19777173,8.91779789 0,10.1155696 0,11.5931373 C0,13.0707049 1.19777173,14.2684766 2.67533937,14.2684766 C4.152907,14.2684766 5.35067873,13.0707049 5.35067873,11.5931373 L5.35067873,3.43594392 C5.39008425,3.46643164 5.42926683,3.49733739 5.46856087,3.52771364 C6.47473929,4.30389647 7.13423831,4.86755703 7.13423831,5.59845417 C7.13423831,6.73452589 6.52994603,7.36852558 6.51263993,7.38658412 C6.15949513,7.72991934 6.15144125,8.29447168 6.49477647,8.64761648 C6.66959317,8.82744945 6.90179034,8.91779789 7.13432192,8.91779789 C7.35824225,8.91779789 7.582497,8.83397059 7.75580882,8.66545208 C7.87480569,8.54985512 8.91777002,7.48150293 8.91777002,5.59842631 C8.91779789,3.93637172 7.6094176,2.9267934 6.55814857,2.11558034 L6.55814857,2.11558034 Z" id="Shape"></path>
                    </g>
                </g>
                <g id="musical-note-(1)-copy-3" transform="translate(247.000000, 43.000000)" fill="url(#linearGradient-2)">
                    <g id="Capa_1">
                        <path d="M7.86977828,2.53869641 C7.25829603,2.06686687 6.42081448,1.42050488 6.42081448,1.07013575 C6.42081448,0.479153281 5.9416612,0 5.35067873,0 C4.75969627,0 4.28054299,0.479153281 4.28054299,1.07013575 L4.28054299,10.8879624 C3.94535641,10.7692776 3.58622554,10.7013575 3.21040724,10.7013575 C1.43732607,10.7013575 0,12.1386835 0,13.9117647 C0,15.6848459 1.43732607,17.1221719 3.21040724,17.1221719 C4.9834884,17.1221719 6.42081448,15.6848459 6.42081448,13.9117647 L6.42081448,4.12313271 C6.4681011,4.15971797 6.51512019,4.19680486 6.56227305,4.23325636 C7.76968715,5.16467576 8.56108597,5.84106844 8.56108597,6.71814501 C8.56108597,8.08143107 7.83593524,8.8422307 7.81516792,8.86390095 C7.39139416,9.27590321 7.3817295,9.95336602 7.79373176,10.3771398 C8.00351181,10.5929393 8.2821484,10.7013575 8.5611863,10.7013575 C8.8298907,10.7013575 9.09899639,10.6007647 9.30697059,10.3985425 C9.44976683,10.2598261 10.701324,8.97780352 10.701324,6.71811157 C10.7013575,4.72364607 9.13130112,3.51215208 7.86977828,2.53869641 L7.86977828,2.53869641 Z" id="Shape"></path>
                    </g>
                </g>
                <g id="musical-note" transform="translate(82.000000, 10.000000)" fill="url(#linearGradient-2)">
                    <path d="M5.67089286,2.16071429 L5.67089286,13.7268214 C5.08160714,13.15325 4.25929167,12.8005952 3.36102381,12.8005952 C1.502875,12.8005952 0,14.307006 0,16.1652202 C0,18.0235 1.50824405,19.5299107 3.36639286,19.5299107 C5.22467262,19.5299107 6.73206548,18.0286726 6.73206548,16.1703929 C6.73206548,16.1693452 6.7212619,16.172619 6.7212619,16.172619 L6.7185119,15.8199643 L6.7185119,6.48214286 L15.4268452,4.55347619 L15.4268452,11.369744 C14.8375595,10.7961726 14.015244,10.4435179 13.1169762,10.4435179 C11.2588274,10.4435179 9.75595238,11.9499286 9.75595238,13.8081429 C9.75595238,15.6664226 11.2641964,17.1728333 13.1223452,17.1728333 C14.9782024,17.1728333 16.4724345,15.6704167 16.4763631,13.8156071 L16.4743988,13.5700714 L16.4743988,4.32142857 L16.4743988,0 L5.67089286,2.16071429 L5.67089286,2.16071429 Z" id="Shape"></path>
                </g>
                <g id="musical-note-copy-3" transform="translate(204.798560, 27.859220) rotate(-345.000000) translate(-204.798560, -27.859220) translate(196.298560, 17.859220)" fill="url(#linearGradient-1)">
                    <path d="M5.67089286,2.16071429 L5.67089286,13.7268214 C5.08160714,13.15325 4.25929167,12.8005952 3.36102381,12.8005952 C1.502875,12.8005952 -5.68434189e-14,14.307006 -5.68434189e-14,16.1652202 C-5.68434189e-14,18.0235 1.50824405,19.5299107 3.36639286,19.5299107 C5.22467262,19.5299107 6.73206548,18.0286726 6.73206548,16.1703929 C6.73206548,16.1693452 6.7212619,16.172619 6.7212619,16.172619 L6.7185119,15.8199643 L6.7185119,6.48214286 L15.4268452,4.55347619 L15.4268452,11.369744 C14.8375595,10.7961726 14.015244,10.4435179 13.1169762,10.4435179 C11.2588274,10.4435179 9.75595238,11.9499286 9.75595238,13.8081429 C9.75595238,15.6664226 11.2641964,17.1728333 13.1223452,17.1728333 C14.9782024,17.1728333 16.4724345,15.6704167 16.4763631,13.8156071 L16.4743988,13.5700714 L16.4743988,4.32142857 L16.4743988,-2.84217094e-14 L5.67089286,2.16071429 L5.67089286,2.16071429 Z" id="Shape"></path>
                </g>
                <g id="musical-note-copy-4" transform="translate(259.956359, 17.724125) rotate(-345.000000) translate(-259.956359, -17.724125) translate(247.456359, 2.724125)" fill="url(#linearGradient-3)">
                    <path d="M8.50633929,3.24107143 L8.50633929,20.5902321 C7.62241071,19.729875 6.3889375,19.2008929 5.04153571,19.2008929 C2.2543125,19.2008929 0,21.4605089 0,24.2478304 C0,27.03525 2.26236607,29.2948661 5.04958929,29.2948661 C7.83700893,29.2948661 10.0980982,27.0430089 10.0980982,24.2555893 C10.0980982,24.2540179 10.0818929,24.2589286 10.0818929,24.2589286 L10.0777679,23.7299464 L10.0777679,9.72321429 L23.1402679,6.83021429 L23.1402679,17.0546161 C22.2563393,16.1942589 21.0228661,15.6652768 19.6754643,15.6652768 C16.8882411,15.6652768 14.6339286,17.9248929 14.6339286,20.7122143 C14.6339286,23.4996339 16.8962946,25.75925 19.6835179,25.75925 C22.4673036,25.75925 24.7086518,23.505625 24.7145446,20.7234107 L24.7115982,20.3551071 L24.7115982,6.48214286 L24.7115982,0 L8.50633929,3.24107143 L8.50633929,3.24107143 Z" id="Shape"></path>
                </g>
                <g id="musical-note-copy-5" transform="translate(279.798560, 52.859220) rotate(-345.000000) translate(-279.798560, -52.859220) translate(271.298560, 42.859220)" fill="url(#linearGradient-3)">
                    <path d="M5.67089286,2.16071429 L5.67089286,13.7268214 C5.08160714,13.15325 4.25929167,12.8005952 3.36102381,12.8005952 C1.502875,12.8005952 0,14.307006 0,16.1652202 C0,18.0235 1.50824405,19.5299107 3.36639286,19.5299107 C5.22467262,19.5299107 6.73206548,18.0286726 6.73206548,16.1703929 C6.73206548,16.1693452 6.7212619,16.172619 6.7212619,16.172619 L6.7185119,15.8199643 L6.7185119,6.48214286 L15.4268452,4.55347619 L15.4268452,11.369744 C14.8375595,10.7961726 14.015244,10.4435179 13.1169762,10.4435179 C11.2588274,10.4435179 9.75595238,11.9499286 9.75595238,13.8081429 C9.75595238,15.6664226 11.2641964,17.1728333 13.1223452,17.1728333 C14.9782024,17.1728333 16.4724345,15.6704167 16.4763631,13.8156071 L16.4743988,13.5700714 L16.4743988,4.32142857 L16.4743988,2.84217094e-14 L5.67089286,2.16071429 L5.67089286,2.16071429 Z" id="Shape"></path>
                </g>
                <g id="musical-note-copy" transform="translate(55.745191, 53.111216) rotate(-330.000000) translate(-55.745191, -53.111216) translate(48.245191, 44.611216)" fill="url(#linearGradient-6)">
                    <path d="M4.82025893,1.83660714 L4.82025893,11.6677982 C4.31936607,11.1802625 3.62039792,10.880506 2.85687024,10.880506 C1.27744375,10.880506 -2.84217094e-14,12.1609551 -2.84217094e-14,13.7404372 C-2.84217094e-14,15.319975 1.28200744,16.6004241 2.86143393,16.6004241 C4.44097173,16.6004241 5.72225565,15.3243717 5.72225565,13.7448339 C5.72225565,13.7439435 5.71307262,13.7467262 5.71307262,13.7467262 L5.71073512,13.4469696 L5.71073512,5.50982143 L13.1128185,3.87045476 L13.1128185,9.66428244 C12.6119256,9.17674673 11.9129574,8.87699018 11.1494298,8.87699018 C9.57000327,8.87699018 8.29255952,10.1574393 8.29255952,11.7369214 C8.29255952,13.3164592 9.57456696,14.5969083 11.1539935,14.5969083 C12.731472,14.5969083 14.0015693,13.3198542 14.0049086,11.7432661 L14.003239,11.5345607 L14.003239,3.67321429 L14.003239,-2.84217094e-14 L4.82025893,1.83660714 L4.82025893,1.83660714 Z" id="Shape"></path>
                </g>
                <g id="musical-note-copy-6" transform="translate(123.584840, 41.843211) rotate(-330.000000) translate(-123.584840, -41.843211) translate(118.290723, 35.843211)" fill="url(#linearGradient-6)">
                    <path d="M3.40253571,1.29642857 L3.40253571,8.23609286 C3.04896429,7.89195 2.555575,7.68035714 2.01661429,7.68035714 C0.901725,7.68035714 -2.00623831e-14,8.58420357 -2.00623831e-14,9.69913214 C-2.00623831e-14,10.8141 0.904946429,11.7179464 2.01983571,11.7179464 C3.13480357,11.7179464 4.03923929,10.8172036 4.03923929,9.70223571 C4.03923929,9.70160714 4.03275714,9.70357143 4.03275714,9.70357143 L4.03110714,9.49197857 L4.03110714,3.88928571 L9.25610714,2.73208571 L9.25610714,6.82184643 C8.90253571,6.47770357 8.40914643,6.26611071 7.87018571,6.26611071 C6.75529643,6.26611071 5.85357143,7.16995714 5.85357143,8.28488571 C5.85357143,9.39985357 6.75851786,10.3037 7.87340714,10.3037 C8.98692143,10.3037 9.88346071,9.40225 9.88581786,8.28936429 L9.88463929,8.14204286 L9.88463929,2.59285714 L9.88463929,-2.00623831e-14 L3.40253571,1.29642857 L3.40253571,1.29642857 Z" id="Shape"></path>
                </g>
                <g id="musical-note-copy-2" transform="translate(9.444406, 56.151512) rotate(-345.000000) translate(-9.444406, -56.151512) translate(1.944406, 47.651512)" fill="url(#linearGradient-3)">
                    <path d="M4.82025893,11.6677982 C4.31936607,11.1802625 3.62039792,10.880506 2.85687024,10.880506 C1.27744375,10.880506 -1.42108547e-14,12.1609551 -1.42108547e-14,13.7404372 C-1.42108547e-14,15.319975 1.28200744,16.6004241 2.86143393,16.6004241 C4.44097173,16.6004241 5.72225565,15.3243717 5.72225565,13.7448339 C5.72225565,13.7439435 5.71073512,13.4469696 5.71073512,13.4469696 L5.71073512,5.50982143 L13.1128185,3.87045476 L13.1128185,9.66428244 C12.6119256,9.17674673 11.9129574,8.87699018 11.1494298,8.87699018 C9.57000327,8.87699018 8.29255952,10.1574393 8.29255952,11.7369214 C8.29255952,13.3164592 9.57456696,14.5969083 11.1539935,14.5969083 C12.731472,14.5969083 14.0015693,13.3198542 14.0049086,11.7432661 L14.003239,11.5345607 L14.003239,3.67321429 L14.003239,1.13686838e-13 L4.82025893,1.83660714 L4.82025893,11.6677982 Z" id="Shape"></path>
                </g>
            </g>
        </g>
    </g>
</svg>
