<svg xmlns="http://www.w3.org/2000/svg" width="23" height="10" viewBox="0 0 23 10">
  <defs>
    <linearGradient id="a" x1="50%" x2="50%" y1="5.072%" y2="99.051%">
      <stop stop-color="#DE9329" offset="0%"/>
      <stop stop-color="#D64C1B" offset="100%"/>
    </linearGradient>
    <linearGradient id="b" x1="50%" x2="50%" y1="-.709%" y2="99.096%">
      <stop stop-color="#DE9329" offset="0%"/>
      <stop stop-color="#D64C1B" offset="100%"/>
    </linearGradient>
    <linearGradient id="c" x1="50%" x2="50%" y1="-11.64%" y2="98.998%">
      <stop stop-color="#DE9329" offset="0%"/>
      <stop stop-color="#D64C1B" offset="100%"/>
    </linearGradient>
    <linearGradient id="d" x1="50%" x2="50%" y1="-17.449%" y2="98.946%">
      <stop stop-color="#DE9329" offset="0%"/>
      <stop stop-color="#D64C1B" offset="100%"/>
    </linearGradient>
    <linearGradient id="e" x1="50%" x2="50%" y1="-9.83%" y2="99.014%">
      <stop stop-color="#DE9329" offset="0%"/>
      <stop stop-color="#D64C1B" offset="100%"/>
    </linearGradient>
    <linearGradient id="f" x1="50%" x2="50%" y1="-14.794%" y2="98.97%">
      <stop stop-color="#DE9329" offset="0%"/>
      <stop stop-color="#D64C1B" offset="100%"/>
    </linearGradient>
    <linearGradient id="g" x1="50%" x2="50%" y1="-26.204%" y2="98.867%">
      <stop stop-color="#DE9329" offset="0%"/>
      <stop stop-color="#D64C1B" offset="100%"/>
    </linearGradient>
    <linearGradient id="h" x1="50%" x2="50%" y1="-56.302%" y2="98.597%">
      <stop stop-color="#DE9329" offset="0%"/>
      <stop stop-color="#D64C1B" offset="100%"/>
    </linearGradient>
    <linearGradient id="i" x1="50%" x2="50%" y1="-73.671%" y2="98.441%">
      <stop stop-color="#DE9329" offset="0%"/>
      <stop stop-color="#D64C1B" offset="100%"/>
    </linearGradient>
    <linearGradient id="j" x1="50%" x2="50%" y1="-80.317%" y2="101.044%">
      <stop stop-color="#DE9329" offset="0%"/>
      <stop stop-color="#D64C1B" offset="100%"/>
    </linearGradient>
    <linearGradient id="k" x1="50%" x2="50%" y1="-155.543%" y2="129.042%">
      <stop stop-color="#DE9329" offset="0%"/>
      <stop stop-color="#D64C1B" offset="100%"/>
    </linearGradient>
  </defs>
  <g fill="none" fill-rule="evenodd">
    <path fill="url(#a)" d="M22.9795156,6.89804703 C22.887875,5.57752178 21.792192,4.51648706 20.4566004,4.45240215 C19.9461853,4.42790657 19.4654442,4.54591225 19.0512902,4.76952336 C18.9961004,2.13980587 16.8268616,0.0244955808 14.1571161,0.0244955808 C13.4509442,0.0244955808 12.7801964,0.173044508 12.1740335,0.439599116 C12.0435804,0.496975694 11.9604621,0.626263573 11.9604621,0.76759596 L11.9604621,9.35970044 C11.9604621,9.55820612 12.1230536,9.7191553 12.3235848,9.7191553 L20.3241451,9.7191553 C21.8564174,9.71910448 23.0863013,8.43745707 22.9795156,6.89804703 Z"/>
    <path fill="url(#b)" d="M11.2526473,0.580931503 C11.0507299,0.580931503 10.8871116,0.742947917 10.8871116,0.942774937 L10.8871116,9.34785922 C10.8871116,9.54773706 11.0507813,9.70970265 11.2526473,9.70970265 C11.4545134,9.70970265 11.6182344,9.54768624 11.6182344,9.34785922 L11.6182344,0.942774937 C11.6182344,0.742947917 11.4545134,0.580931503 11.2526473,0.580931503 Z"/>
    <path fill="url(#c)" d="M10.0429911,1.4747661 C9.84107366,1.4747661 9.67745536,1.63678251 9.67745536,1.83660953 L9.67745536,9.34785922 C9.67745536,9.54773706 9.841125,9.70970265 10.0429911,9.70970265 C10.2448571,9.70970265 10.4085268,9.54768624 10.4085268,9.34785922 L10.4085268,1.83660953 C10.4085268,1.63678251 10.2448571,1.4747661 10.0429911,1.4747661 Z"/>
    <path fill="url(#d)" d="M8.83328348,1.88204324 C8.63136607,1.88204324 8.46774777,2.04405966 8.46774777,2.24388668 L8.46774777,9.34785922 C8.46774777,9.54773706 8.63141741,9.70970265 8.83328348,9.70970265 C9.03520089,9.70970265 9.1988192,9.54768624 9.1988192,9.34785922 L9.1988192,2.24388668 C9.19887054,2.04400884 9.03520089,1.88204324 8.83328348,1.88204324 Z"/>
    <path fill="url(#e)" d="M7.62362723,1.33902399 C7.42170982,1.33902399 7.25809152,1.5010404 7.25809152,1.70086742 L7.25809152,9.34785922 C7.25809152,9.54773706 7.42176116,9.70970265 7.62362723,9.70970265 C7.8254933,9.70970265 7.98916295,9.54768624 7.98916295,9.34785922 L7.98916295,1.70086742 C7.98916295,1.5010404 7.8254933,1.33902399 7.62362723,1.33902399 Z"/>
    <path fill="url(#f)" d="M6.41391964,1.70101989 C6.21200223,1.70101989 6.04838393,1.8630363 6.04838393,2.06286332 L6.04838393,9.34785922 C6.04838393,9.54773706 6.21205357,9.70970265 6.41391964,9.70970265 C6.61578571,9.70970265 6.77945536,9.54768624 6.77945536,9.34785922 L6.77945536,2.06286332 C6.77945536,1.8630363 6.61583705,1.70101989 6.41391964,1.70101989 Z"/>
    <path fill="url(#g)" d="M5.20426339,2.4250625 C5.00234598,2.4250625 4.83872768,2.58707891 4.83872768,2.78690593 L4.83872768,9.34785922 C4.83872768,9.54773706 5.00239732,9.70970265 5.20426339,9.70970265 C5.40612946,9.70970265 5.56979911,9.54768624 5.56979911,9.34785922 L5.56979911,2.78690593 C5.56985045,2.58702809 5.4061808,2.4250625 5.20426339,2.4250625 Z"/>
    <path fill="url(#h)" d="M3.99460714,3.82781566 C3.79268973,3.82781566 3.62907143,3.98983207 3.62907143,4.18965909 L3.62907143,9.34785922 C3.62907143,9.54773706 3.79274107,9.70970265 3.99460714,9.70970265 C4.19652455,9.70970265 4.36014286,9.54768624 4.36014286,9.34785922 L4.36014286,4.18965909 C4.36014286,3.98983207 4.19647321,3.82781566 3.99460714,3.82781566 Z"/>
    <path fill="url(#i)" d="M2.78489955,4.41606534 C2.58298214,4.41606534 2.41936384,4.57808176 2.41936384,4.77790878 L2.41936384,9.34785922 C2.41936384,9.54773706 2.58303348,9.70970265 2.78489955,9.70970265 C2.98676563,9.70970265 3.15043527,9.54768624 3.15043527,9.34785922 L3.15043527,4.77790878 C3.15043527,4.57808176 2.98681696,4.41606534 2.78489955,4.41606534 Z"/>
    <path fill="url(#j)" d="M1.5752433,4.55104514 C1.37332589,4.55104514 1.20970759,4.71306155 1.20970759,4.91288857 L1.20970759,9.21287942 C1.20970759,9.41275726 1.37337723,9.57472285 1.5752433,9.57472285 C1.77710937,9.57472285 1.94077902,9.41270644 1.94077902,9.21287942 L1.94077902,4.91288857 C1.94077902,4.71306155 1.77710937,4.55104514 1.5752433,4.55104514 Z"/>
    <path fill="url(#k)" d="M0.365535714,5.49590372 C0.163618304,5.49590372 0,5.65792014 0,5.85774716 L0,8.33556155 C0,8.53543939 0.163669643,8.69740499 0.365535714,8.69740499 C0.567401786,8.69740499 0.731071429,8.53538857 0.731071429,8.33556155 L0.731071429,5.85774716 C0.731071429,5.65786932 0.567453125,5.49590372 0.365535714,5.49590372 Z"/>
  </g>
</svg>
