<svg xmlns="http://www.w3.org/2000/svg" width="17" height="17" viewBox="0 0 17 17">
  <path fill="#00D95F" fill-rule="evenodd" d="M8.49308879,0 C3.80247897,0 0,3.80247897 0,8.49308879 C0,13.1836986 3.80247897,16.9861776 8.49308879,16.9861776 C13.1836986,16.9861776 16.9861776,13.1836986 16.9861776,8.49308879 C16.9861776,3.80247897 13.1836986,0 8.49308879,0 Z M12.1893972,12.3257944 C12.0813995,12.5105701 11.8870514,12.6136028 11.6874206,12.6136425 C11.5878832,12.6136425 11.4870748,12.5880234 11.3949252,12.5342033 C9.8686986,11.6422593 8.10554439,11.4989112 6.89489019,11.5357313 C5.55383645,11.5765234 4.5703785,11.8412547 4.56060748,11.8439556 C4.25146963,11.9283995 3.93200467,11.7464836 3.84720327,11.4373855 C3.76244159,11.1283271 3.94372196,10.8090607 4.25270093,10.7239416 C4.29702804,10.7117477 5.35531776,10.4242967 6.82696963,10.3757593 C7.69381075,10.3471612 8.52832009,10.4075748 9.30698364,10.5552921 C10.293222,10.7423715 11.1928715,11.0707734 11.9809883,11.5313621 C12.2579533,11.6931799 12.351215,12.0489089 12.1893972,12.3257944 Z M13.2691355,10.083264 C13.1412383,10.3021589 12.9110234,10.4241776 12.6745327,10.4242173 C12.5566449,10.4242173 12.4372079,10.3939112 12.3280584,10.3301215 C10.5202593,9.27357944 8.43168224,9.10385748 6.99768458,9.14742991 C5.40913785,9.19576869 4.24420093,9.50935514 4.23264252,9.51253271 C3.86654673,9.61242757 3.48805841,9.39710748 3.38760748,9.03097196 C3.28719626,8.66483645 3.50196028,8.28670561 3.86793692,8.18585748 C3.92044626,8.17139953 5.17399766,7.83088318 6.91721262,7.77340888 C7.94408411,7.73956776 8.93254673,7.8111028 9.85487617,7.98606776 C11.0231098,8.20770327 12.0887477,8.59667757 13.022278,9.14222664 C13.3503621,9.33391355 13.4608621,9.75525935 13.2691355,10.083264 Z M13.9328902,8.04425701 C13.788271,8.04425701 13.641785,8.00707944 13.5078902,7.92883178 C9.2099486,5.41704206 3.63470327,6.9103014 3.5788972,6.92571262 C3.12954907,7.04951869 2.66502804,6.7856215 2.54126168,6.33631308 C2.41745561,5.88700467 2.6813528,5.42244393 3.13066121,5.29867757 C3.19504673,5.2809229 4.7326729,4.86327103 6.87089953,4.79276869 C8.13052804,4.7513014 9.34292991,4.83900234 10.474264,5.05360748 C11.907229,5.3254486 13.2144019,5.80256075 14.3594393,6.47175701 C14.7617991,6.7068972 14.8973621,7.22368925 14.662222,7.62604907 C14.5053294,7.89455374 14.2229626,8.04425701 13.9328902,8.04425701 Z"/>
</svg>
