<?xml version="1.0" encoding="UTF-8" standalone="no"?>
<svg width="16px" height="14px" viewBox="0 0 16 14" version="1.1" xmlns="http://www.w3.org/2000/svg" xmlns:xlink="http://www.w3.org/1999/xlink">
    <!-- Generator: Sketch 39.1 (31720) - http://www.bohemiancoding.com/sketch -->
    <title>twitter</title>
    <desc>Created with Sketch.</desc>
    <defs></defs>
    <g id="Page-1" stroke="none" stroke-width="1" fill="none" fill-rule="evenodd">
        <g id="web" transform="translate(-730.000000, -252.000000)" fill="#4D4D4D">
            <g id="headliner" transform="translate(372.000000, 73.000000)">
                <g id="header" transform="translate(18.000000, 57.000000)">
                    <g id="twtr" transform="translate(330.000000, 112.000000)">
                        <path d="M25.630491,12.3852478 C25.058257,12.6384778 24.4465586,12.8094903 23.8019732,12.8884191 C24.4597134,12.493775 24.9661734,11.8689218 25.2029598,11.1256754 C24.5879728,11.4907212 23.9072117,11.7571059 23.1804087,11.8985201 C22.5983087,11.2769556 21.769556,10.8888889 20.8552972,10.8888889 C19.0958421,10.8888889 17.6718346,12.3161851 17.6718346,14.0756401 C17.6718346,14.3255814 17.6981442,14.5689453 17.7540521,14.802443 C15.1066479,14.670895 12.7585154,13.4014564 11.189805,11.470989 C10.9168428,11.9412732 10.7589852,12.4904863 10.7589852,13.0725863 C10.7589852,14.1775899 11.3246418,15.154334 12.179704,15.726568 C11.6535119,15.7134132 11.1602067,15.5687104 10.7326756,15.3286352 L10.7326756,15.3680996 C10.7326756,16.9137891 11.8311017,18.1996711 13.2879962,18.4923655 C13.0216115,18.5647169 12.7387832,18.6041813 12.4493775,18.6041813 C12.245478,18.6041813 12.0448673,18.5844491 11.8508339,18.5449847 C12.2553441,19.8111346 13.4326991,20.7319709 14.8271083,20.7582805 C13.7385483,21.6133427 12.3638713,22.1230914 10.870801,22.1230914 C10.6142824,22.1230914 10.3610524,22.1066479 10.1111111,22.0770496 C11.5153864,22.9913084 13.1893352,23.5175006 14.9849659,23.5175006 C20.8487198,23.5175006 24.0519145,18.6600893 24.0519145,14.4472633 C24.0519145,14.3091379 24.0486258,14.1710125 24.0420484,14.0361757 C24.6636129,13.5856237 25.2029598,13.0265445 25.630491,12.3852478 L25.630491,12.3852478 Z" id="twitter"></path>
                    </g>
                </g>
            </g>
        </g>
    </g>
</svg>