<?xml version="1.0" encoding="UTF-8" standalone="no"?>
<svg width="16px" height="14px" viewBox="0 0 16 14" version="1.1" xmlns="http://www.w3.org/2000/svg" xmlns:xlink="http://www.w3.org/1999/xlink">
    <!-- Generator: sketchtool 39.1 (31720) - http://www.bohemiancoding.com/sketch -->
    <title>400719BB-CD4F-4194-B943-6461B6FC65FB</title>
    <desc>Created with sketchtool.</desc>
    <defs></defs>
    <g id="Page-1" stroke="none" stroke-width="1" fill="none" fill-rule="evenodd">
        <g id="web" transform="translate(-1250.000000, -980.000000)" fill="#975DE8">
            <g id="bottomNav" transform="translate(0.000000, 948.000000)">
                <g id="volumeBar" transform="translate(1246.000000, 29.000000)">
                    <g id="volume/active" transform="translate(4.000000, 3.000000)">
                        <g id="Layer_1">
                            <g>
                                <g id="Group">
                                    <polygon id="Shape" points="7.10714286 12.2785714 7.10714286 1.43928571 3.71785714 4.57142857 0 4.57142857 0 9.14285714 3.71785714 9.14285714"></polygon>
                                    <path d="M9.11071429,10.4178571 C9.84285714,9.42142857 10.2821429,8.19285714 10.2821429,6.85714286 C10.2821429,5.52142857 9.84285714,4.29285714 9.11071429,3.29642857 L8.38214286,3.84285714 C9.00357143,4.68571429 9.375,5.725 9.375,6.85714286 C9.375,7.98571429 9.00357143,9.02857143 8.38214286,9.86785714 L9.11071429,10.4178571 L9.11071429,10.4178571 Z" id="Shape"></path>
                                    <path d="M11.4892857,12.0607143 C12.5607143,10.6071429 13.2035714,8.80714286 13.2035714,6.85714286 C13.2035714,4.90714286 12.5607143,3.11071429 11.4892857,1.65357143 L10.7607143,2.2 C11.7214286,3.5 12.2964286,5.11071429 12.2964286,6.85714286 C12.2964286,8.60357143 11.7214286,10.2107143 10.7607143,11.5107143 L11.4892857,12.0607143 L11.4892857,12.0607143 Z" id="Shape"></path>
                                    <path d="M13.025,0.55 C14.325,2.31071429 15.0928571,4.49642857 15.0928571,6.85714286 C15.0928571,9.21785714 14.325,11.4 13.025,13.1642857 L13.7571429,13.7142857 C15.1642857,11.8 16,9.42857143 16,6.85714286 C16,4.28571429 15.1642857,1.91428571 13.7571429,0 L13.025,0.55 L13.025,0.55 Z" id="Shape"></path>
                                </g>
                            </g>
                        </g>
                    </g>
                </g>
            </g>
        </g>
    </g>
</svg>