<?xml version="1.0" encoding="UTF-8" standalone="no"?>
<svg width="13px" height="12px" viewBox="0 0 13 12" version="1.1" xmlns="http://www.w3.org/2000/svg" xmlns:xlink="http://www.w3.org/1999/xlink">
    <!-- Generator: sketchtool 39.1 (31720) - http://www.bohemiancoding.com/sketch -->
    <title>C4B3A4A9-B7C0-4CDC-81DD-FECCDE531BBB</title>
    <desc>Created with sketchtool.</desc>
    <defs></defs>
    <g id="Page-1" stroke="none" stroke-width="1" fill="none" fill-rule="evenodd">
        <g id="web" transform="translate(-408.000000, -333.000000)" fill="#FFFFFF">
            <g id="volume/active" transform="translate(408.000000, 333.000000)">
                <g id="Layer_1">
                    <g id="Group">
                        <polygon id="Shape" points="5.77455357 9.97633929 5.77455357 1.16941964 3.02075893 3.71428571 0 3.71428571 0 7.42857143 3.02075893 7.42857143"></polygon>
                        <path d="M7.40245536,8.46450893 C7.99732143,7.65491071 8.35424107,6.65669643 8.35424107,5.57142857 C8.35424107,4.48616071 7.99732143,3.48794643 7.40245536,2.67834821 L6.81049107,3.12232143 C7.31540179,3.80714286 7.6171875,4.6515625 7.6171875,5.57142857 C7.6171875,6.48839286 7.31540179,7.33571429 6.81049107,8.01763393 L7.40245536,8.46450893 L7.40245536,8.46450893 Z" id="Shape"></path>
                        <path d="M9.33504464,9.79933036 C10.2055804,8.61830357 10.7279018,7.15580357 10.7279018,5.57142857 C10.7279018,3.98705357 10.2055804,2.52745536 9.33504464,1.34352679 L8.74308036,1.7875 C9.52366071,2.84375 9.99084821,4.15245536 9.99084821,5.57142857 C9.99084821,6.99040179 9.52366071,8.29620536 8.74308036,9.35245536 L9.33504464,9.79933036 L9.33504464,9.79933036 Z" id="Shape"></path>
                        <path d="M10.5828125,0.446875 C11.6390625,1.87745536 12.2629464,3.65334821 12.2629464,5.57142857 C12.2629464,7.48950893 11.6390625,9.2625 10.5828125,10.6959821 L11.1776786,11.1428571 C12.3209821,9.5875 13,7.66071429 13,5.57142857 C13,3.48214286 12.3209821,1.55535714 11.1776786,0 L10.5828125,0.446875 L10.5828125,0.446875 Z" id="Shape"></path>
                    </g>
                </g>
            </g>
        </g>
    </g>
</svg>