<?xml version="1.0" encoding="UTF-8" standalone="no"?>
<svg width="95px" height="66px" viewBox="0 0 95 66" version="1.1" xmlns="http://www.w3.org/2000/svg" xmlns:xlink="http://www.w3.org/1999/xlink">
    <!-- Generator: Sketch 39.1 (31720) - http://www.bohemiancoding.com/sketch -->
    <title>Group 3</title>
    <desc>Created with Sketch.</desc>
    <defs>
        <linearGradient x1="0%" y1="63.9145156%" x2="100%" y2="63.9145136%" id="linearGradient-1">
            <stop stop-color="#EB7878" offset="0%"></stop>
            <stop stop-color="#78EB79" offset="53.3143335%"></stop>
            <stop stop-color="#78A8EB" offset="100%"></stop>
        </linearGradient>
    </defs>
    <g id="Page-1" stroke="none" stroke-width="1" fill="none" fill-rule="evenodd">
        <g id="Desktop-HD" transform="translate(-672.000000, -479.000000)" fill="url(#linearGradient-1)">
            <g id="Group-3" transform="translate(719.500000, 512.000000) rotate(-360.000000) translate(-719.500000, -512.000000) translate(672.000000, 479.000000)">
                <g id="Group">
                    <path d="M56.3117758,47.4011329 L64.3806055,64.1036913 C64.615817,64.5905815 65.2549113,64.9959562 65.8017028,64.9959562 L67.309112,64.9959562 C67.8432337,64.9959562 68.4720679,64.5845939 68.6853538,64.0771529 L94.4529246,2.77200292 C95.0967068,1.24034258 94.2738451,0 92.6156924,0 L93.0403681,0 C91.3887859,0 89.5212656,1.24024931 88.8838201,2.77017437 L66.6291146,56.1834181 C66.5246079,56.4342432 66.3503793,56.4334708 66.2408667,56.1795266 L59.2295933,39.9213803 L69.1712358,14.4362269 C69.7724519,12.8950245 68.9180148,11.6409443 67.2605408,11.6409443 L66.4587233,11.6409443 C65.3565298,11.6409443 64.1517558,12.4816079 63.7675297,13.518619 L56.408637,33.3799838 L52.8196391,25.0576081 C52.3804189,24.0391189 51.1300228,23.2128415 50.0271357,23.2128415 L44.6047492,23.2128415 C43.5106693,23.2128415 42.25107,24.0334193 41.811027,25.0456534 L38.5014183,32.6587693 L31.1024797,13.504407 C30.7069896,12.4805627 29.4892505,11.6409443 28.3871714,11.6409443 L28.5797873,11.6409443 C26.3712655,11.6409443 25.2509316,13.3028007 26.0733474,15.3528045 L35.648697,39.220904 L28.2763667,56.1795266 C28.1692716,56.4258782 27.9922684,56.4352131 27.8883912,56.1834181 L5.85294392,2.77017437 C5.2198884,1.23566734 3.36591986,0 1.70776725,0 L2.13244294,0 C0.480860714,0 -0.350486258,1.24106798 0.290252874,2.77200292 L25.9481744,64.0771529 C26.1590087,64.5809048 26.7759814,64.9959562 27.3227729,64.9959562 L28.830182,64.9959562 C29.3643037,64.9959562 30.014507,64.5964756 30.2541529,64.1036913 L38.6801531,46.777296 L45.6311621,64.1038043 C45.8367293,64.6162138 46.4473243,65.0304797 46.9955204,65.0304797 L48.4420509,65.0304797 C48.9860097,65.0304797 49.5964931,64.615593 49.7961395,64.1038043 L56.3117758,47.4011329 Z M53.4265151,41.4286145 L47.8051114,29.7922525 C47.5670525,29.2994682 47.1769299,29.3053623 46.9401503,29.7922525 L41.619986,40.7321135 L47.058138,54.8103941 C47.4556823,55.8395561 48.089045,55.8342383 48.4736583,54.796182 L53.4265151,41.4286145 Z" id="Combined-Shape"></path>
                </g>
            </g>
        </g>
    </g>
</svg>