<svg xmlns="http://www.w3.org/2000/svg" width="45" height="32" viewBox="0 0 45 32">
  <defs>
    <linearGradient id="a" x1="0%" y1="63.915%" y2="63.915%">
      <stop stop-color="#EB7878" offset="0%"/>
      <stop stop-color="#78EB79" offset="53.314%"/>
      <stop stop-color="#78A8EB" offset="100%"/>
    </linearGradient>
  </defs>
  <path fill="url(#a)" fill-rule="evenodd" d="M26.4738765,23.5454251 L29.3387808,29.8729503 C29.5721261,30.3883246 30.0924213,31.0681112 30.5112588,31.4141909 C30.5112588,31.4141909 30.6021113,31.7349266 31.4711796,31.7349266 C32.3402478,31.7349266 32.5046843,31.3929049 32.5046843,31.3929049 C32.9635285,31.0769476 33.4632356,30.3675023 33.6650844,29.8493372 L44.5695405,1.85656609 C44.9657496,0.839460025 44.3957144,1.10102644e-16 43.2891559,1.10102644e-16 L42.7584518,1.10102644e-16 C41.6513947,1.10102644e-16 40.4625774,0.844648076 40.1020406,1.88657428 L31.6323151,26.3634876 C31.5459079,26.6131981 31.3862249,26.6203732 31.2814281,26.3628243 L28.2166422,18.8308019 L33.1473664,5.49194224 C33.528281,4.46147157 32.9402889,3.61939466 31.8309871,3.61939466 L32.2515975,3.61939466 C31.1320582,3.61939466 29.9367199,4.45632543 29.5588686,5.48873187 L26.3525071,14.2495005 L25.3998146,11.9081621 C24.9816007,10.880359 23.7496417,10.0481881 22.647641,10.0481881 L22.1779887,10.0481881 C21.0852583,10.0481881 19.8440245,10.8737124 19.4263212,11.8920482 L18.5875463,13.9369319 L15.3640082,5.48873187 C14.9725767,4.46287412 13.7521974,3.61939466 12.6437958,3.61939466 L13.1011281,3.61939466 C11.9916559,3.61939466 11.4115921,4.45776277 11.8031281,5.49194224 L16.7221319,18.4847015 L13.4906658,26.3628243 C13.3864138,26.6169844 13.2280971,26.6206702 13.1401601,26.3634876 L4.77091086,1.88657428 C4.41554243,0.84725499 3.22880248,1.10102644e-16 2.12224392,1.10102644e-16 L1.59153985,1.10102644e-16 C0.484482754,1.10102644e-16 -0.0897531462,0.83121295 0.307834556,1.85656609 L11.1622233,29.8493372 C11.3662918,30.3756168 11.8705799,31.0633619 12.29561,31.4035831 C12.29561,31.4035831 12.4127045,31.7349266 13.299384,31.7349266 C14.1860636,31.7349266 14.2856114,31.4141909 14.2856114,31.4141909 C14.7454337,31.0873115 15.2595407,30.3780743 15.4899672,29.8729503 L18.5194317,23.2319806 L20.4899497,28.4367876 C20.6815926,28.9429817 21.1882755,29.6536893 21.6146111,30.0055856 C21.6146111,30.0055856 21.657846,30.3157895 22.6093025,30.3157895 C23.5607589,30.3157895 23.5691412,30.0160362 23.5691412,30.0160362 C24.0071702,29.6891568 24.4781199,28.9444531 24.6714441,28.421462 L26.4738765,23.5454251 Z M24.5253529,19.2418494 L22.8544535,15.5514442 C22.6257493,15.0463202 22.2582263,15.0360698 22.0231238,15.5514442 L20.4877958,18.9170774 L21.8960287,22.6077528 C22.2899589,23.6401593 22.9180083,23.6336106 23.2934629,22.6077528 L24.5253529,19.2418494 Z"/>
</svg>
